<?xml version="1.0" encoding="UTF-8" standalone="no"?>
<svg xmlns="http://www.w3.org/2000/svg" viewBox="0 0 785 1200">
  <path fill="#06112d" stroke="none" stroke-width="1" d="M 401.00,352.00 C 401.00,352.00 384.00,354.00 384.00,354.00 384.00,354.00 375.00,354.00 375.00,354.00 375.00,354.00 357.00,356.38 357.00,356.38 354.19,356.45 344.65,359.58 343.29,356.38 341.78,353.27 349.83,342.56 352.00,340.00 352.00,340.00 374.01,315.00 374.01,315.00 374.01,315.00 391.00,299.00 391.00,299.00 391.00,299.00 428.00,264.84 428.00,264.84 475.87,222.08 523.02,186.14 584.00,164.05 606.84,155.78 631.17,155.44 655.00,153.17 661.63,152.54 677.88,153.26 682.57,148.57 684.88,146.27 685.90,141.17 687.05,138.00 687.05,138.00 695.85,116.00 695.85,116.00 695.85,116.00 730.85,37.00 730.85,37.00 730.85,37.00 741.33,11.00 741.33,11.00 742.60,8.36 745.15,3.59 748.78,5.74 751.66,7.45 752.05,12.04 752.61,15.00 752.61,15.00 757.21,37.00 757.21,37.00 760.01,50.18 761.47,54.41 765.67,67.00 767.00,71.01 770.22,79.08 769.74,83.00 769.26,86.96 765.42,91.66 763.16,95.00 763.16,95.00 745.58,120.00 745.58,120.00 745.58,120.00 718.29,158.00 718.29,158.00 718.29,158.00 710.10,169.00 710.10,169.00 710.10,169.00 703.31,181.00 703.31,181.00 703.31,181.00 674.42,227.00 674.42,227.00 674.42,227.00 619.15,326.00 619.15,326.00 619.15,326.00 576.75,404.00 576.75,404.00 576.75,404.00 558.00,446.00 558.00,446.00 564.42,442.78 566.77,434.94 570.19,429.00 570.19,429.00 580.58,412.00 580.58,412.00 580.58,412.00 595.86,384.00 595.86,384.00 595.86,384.00 684.20,234.00 684.20,234.00 684.20,234.00 707.60,195.00 707.60,195.00 711.23,188.99 715.71,180.61 722.00,177.28 734.84,170.46 751.62,184.10 759.91,193.00 769.50,203.32 773.68,217.48 776.40,231.00 778.57,241.77 781.95,264.42 782.00,275.00 782.00,275.00 783.00,293.00 783.00,293.00 783.03,311.32 783.26,329.85 780.57,348.00 777.09,371.52 768.81,395.77 760.42,418.00 760.42,418.00 742.11,465.00 742.11,465.00 737.19,475.48 722.73,498.90 716.00,509.00 708.53,502.29 709.19,486.08 701.00,481.00 701.00,481.00 702.00,496.00 702.00,496.00 702.03,517.71 705.13,527.03 699.77,550.00 695.36,568.87 682.91,591.06 673.28,608.00 658.84,633.41 643.88,658.68 627.67,683.00 615.57,701.14 603.95,717.91 589.08,734.00 581.04,742.70 573.83,749.78 563.00,755.00 558.88,746.28 560.99,742.90 561.00,734.00 561.00,734.00 562.00,716.00 562.00,716.00 562.00,716.00 562.00,702.00 562.00,702.00 562.00,702.00 559.00,702.00 559.00,702.00 559.00,702.00 550.42,738.00 550.42,738.00 546.43,756.18 544.14,778.86 534.55,795.00 519.11,820.97 490.09,842.12 466.00,859.88 466.00,859.88 395.00,909.33 395.00,909.33 374.06,923.29 349.05,939.33 326.00,949.15 314.28,954.14 302.16,956.08 290.00,959.42 273.44,963.98 259.81,969.40 244.00,975.80 244.00,975.80 226.00,983.72 226.00,983.72 222.92,985.11 220.25,986.47 217.43,983.72 213.13,979.41 215.43,966.51 216.42,961.00 216.42,961.00 226.00,922.00 226.00,922.00 226.00,922.00 232.00,901.00 232.00,901.00 225.68,904.05 218.36,915.00 214.35,921.00 202.27,939.11 192.58,955.95 186.42,977.00 184.56,983.38 180.16,1003.09 177.35,1006.98 173.23,1012.72 164.28,1016.31 158.00,1019.41 158.00,1019.41 121.00,1039.32 121.00,1039.32 118.48,1040.91 108.32,1047.96 106.13,1047.84 104.78,1047.77 103.97,1046.95 103.33,1045.84 101.64,1042.89 103.35,1030.77 103.87,1027.00 107.09,1003.87 114.83,993.27 119.00,975.00 114.88,977.56 113.50,982.71 111.54,987.00 111.54,987.00 99.00,1019.00 99.00,1019.00 99.00,1019.00 80.58,1084.00 80.58,1084.00 80.58,1084.00 61.33,1146.00 61.33,1146.00 61.33,1146.00 49.14,1183.00 49.14,1183.00 47.81,1187.62 45.99,1195.59 40.96,1197.39 31.98,1200.60 23.72,1184.42 20.86,1178.00 9.34,1152.14 6.79,1146.24 2.87,1118.00 2.87,1118.00 1.00,1101.00 1.00,1101.00 0.62,1068.42 6.87,1038.37 15.12,1007.00 32.90,939.35 72.32,861.28 109.42,802.00 119.94,785.19 131.03,769.35 143.61,754.00 148.49,748.04 162.39,733.52 165.00,728.00 157.30,730.07 151.34,738.59 143.00,737.00 143.00,737.00 153.34,702.00 153.34,702.00 153.34,702.00 168.99,663.00 168.99,663.00 192.73,605.45 211.01,570.31 243.00,517.00 243.00,517.00 269.60,473.00 269.60,473.00 275.95,462.41 282.53,450.39 290.44,441.00 307.62,420.60 341.71,393.30 364.00,377.72 364.00,377.72 389.00,361.32 389.00,361.32 393.27,358.63 398.42,356.47 401.00,352.00 Z M 559.00,447.00 C 559.00,447.00 556.00,447.00 556.00,447.00 556.00,447.00 556.00,450.00 556.00,450.00 556.00,450.00 559.00,450.00 559.00,450.00 559.00,450.00 559.00,447.00 559.00,447.00 Z" />
</svg>
