<?xml version="1.0" encoding="UTF-8" standalone="no"?>
<svg xmlns="http://www.w3.org/2000/svg" viewBox="0 0 2490 3070">
  <path fill="#06112d" stroke="none" stroke-width="1" d="m 577,113 c 2.74755,-1.13807 -1.13807,2.74755 0,0 z m 1407,0 c 2.7475,-1.13807 -1.1381,2.74755 0,0 z m -1405,1 c 2.74755,-1.13807 -1.13807,2.74755 0,0 z m -6,2 c 30.50063,55.58777 100.33313,146.21369 124.98375,139.78875 5.7348,-139.35342 52.09431,134.35628 132.85747,66.52474 146.0103,-58.46936 307.04888,-73.9691 464.20258,-77.88499 67.4566,0.48662 135.112,9.69391 202.9562,19.1515 83.6787,14.66849 174.6746,29.1357 254,69.86 66.6901,13.20623 89.316,-191.42198 108.9475,-87.81625 -13.4238,64.05698 72.8845,-52.72791 94.6611,-82.48522 22.9287,-60.38845 49.5588,-37.37249 43.0449,16.89158 C 1987.6682,259.48715 2047.3539,147.70056 2089,146 c 50.9186,-12.66602 -34.0486,106.21525 -29.8916,79.49287 -42.9036,62.70132 -72.6129,129.86554 -75.3046,209.30213 -2.2721,54.52706 -9.6494,126.65539 28.1962,162.205 86.552,129.79228 182.6746,262.20395 212.4668,418.0064 -6.1691,60.862 96.1183,89.2638 97.5332,128.9936 56.7085,40.1276 -56.4469,42.6954 24.85,57.18 -72.5827,20.6472 -97.4057,134.9035 -154.42,193.54 -69.3744,38.2195 -7.2291,91.201 1.9425,147.4175 16.7673,49.204 13.8334,83.423 27.6275,131.8625 22.3511,70.1232 30.1981,142.9568 27.35,216.17 7.0818,64.8979 22.0719,142.8775 -9.35,204.83 -37.3609,-56.799 -15.7708,-2.2625 -22.6787,43.1565 -4.4577,60.2313 -4.2181,128.0132 -45.3213,175.9135 -31.3394,-59.8463 -21.5208,31.4448 -47.31,73.93 -22.8962,49.1777 -47.2895,121.2713 -107.2162,137.025 -36.116,-10.393 -75.9046,65.6314 -119.4838,88.095 -98.3037,57.7649 60.72,26.189 75.09,97.88 36.4245,35.3744 76.2668,73.3399 61.2077,129.042 2.6342,138.3109 -136.1707,-36.5224 -181.0677,59.4205 -71.3719,37.6994 -110.8176,-54.7568 -183.22,-44.4625 -63.5221,-2.6794 -128.5839,-5.9265 -183.685,-40 -65.381,-28.1397 -137.9396,-2.6671 -207.5992,-9 -57.3201,5.601 -120.1946,-10.0962 -171.7158,-1 -53.3082,12.3181 -98.069,45.689 -148.00506,44.4292 C 900.96434,2858.1611 833.2556,2843.2916 793,2893 c -78.63524,61.0557 -122.62823,-71.7424 -188,-9.25 -71.06424,53.1792 -97.10469,-33.0817 -83.24125,-89.6438 17.60804,-76.9419 197.29836,-164.68 169.75285,-153.5502 -51.23761,-42.2011 -83.09971,-67.2089 -130.3891,-116.011 C 519.08563,2532.1838 473.33892,2477.1765 450,2429 c -21.41561,-49.5017 -39.96932,-98.6463 -48,-145 -9.97919,83.9864 -51.4899,-122.9196 -57.87,-89.83 -5.47444,-32.4905 -2.61837,-89.5752 -5.13,-134.17 -23.43357,87.3502 -48.04053,-36.815 -40,-74 4.43437,-65.5864 13.76768,-129.1096 10,-195 14.47275,-71.7493 36.12724,-142.4489 45.92805,-214.5158 6.7031,-48.9379 28.64857,-94.4677 49.05195,-138.4842 -47.85276,-48.0838 -92.9403,-107.3952 -116.98,-169 -5.74275,-50.6481 -134.16416,-66.4572 -38,-80 -28.78273,-7.8996 -50.49205,-20.4155 -11,-46 0.60131,-39.9357 97.04895,-67.3116 94.81875,-123.965 C 343.34282,925.89871 397.12745,840.72325 436,763 475.16102,698.42275 526.69569,628.78783 568.51,561.17 585.11148,479.92609 571.58006,393.62791 551.52875,315.01375 501.41835,264.33494 481.04151,165.99746 465.7275,146.70625 506.19394,141.03046 572.94952,262.79241 558.765,181.39875 560.03444,161.40514 557.00643,131.66097 573,116 Z m 4,2 c 2.74755,-1.13807 -1.13807,2.74755 0,0 z m 1398,3 c 2.7475,-1.13807 -1.1381,2.74755 0,0 z m 0,3 c 2.7475,-1.13807 -1.1381,2.74755 0,0 z m -1415,4 c 2.74755,-1.13807 -1.13807,2.74755 0,0 z m -3,3 c 2.74755,-1.13807 -1.13807,2.74755 0,0 z m 2,0 c 2.74755,-1.13807 -1.13807,2.74755 0,0 z m 26,3 c 2.74755,-1.13807 -1.13807,2.74755 0,0 z m -25,1 c 2.74755,-1.13807 -1.13807,2.74755 0,0 z m -110,2 c 2.74755,-1.13807 -1.13807,2.74755 0,0 z m 137,1 c 2.74755,-1.13807 -1.13807,2.74755 0,0 z m 1379,0 c 2.7475,-1.13807 -1.1381,2.74755 0,0 z m 143,0 c 2.7475,-1.13807 -1.1381,2.74755 0,0 z m 2,0 c 2.7475,-1.13807 -1.1381,2.74755 0,0 z m -1666,1 c 2.74755,-1.13807 -1.13807,2.74755 0,0 z m 114,0 c 2.74755,-1.13807 -1.13807,2.74755 0,0 z m 1408,1 c 2.7475,-1.13807 -1.1381,2.74755 0,0 z m -1523,1 c 2.74755,-1.13807 -1.13807,2.74755 0,0 z m 4,0 c 2.74755,-1.13807 -1.13807,2.74755 0,0 z m 110,0 c 2.74755,-1.13807 -1.13807,2.74755 0,0 z m 2,0 c 2.74755,-1.13807 -1.13807,2.74755 0,0 z m -4,1 c 2.74755,-1.13807 -1.13807,2.74755 0,0 z m 1408,1 c 2.7475,-1.13807 -1.1381,2.74755 0,0 z m 35,2 c 2.7475,-1.13807 -1.1381,2.74755 0,0 z m 87,0 c 2.7475,-1.13807 -1.1381,2.74755 0,0 z m -123,1 c 2.7475,-1.13807 -1.1381,2.74755 0,0 z m 115,0 c 2.7475,-1.13807 -1.1381,2.74755 0,0 z m -79,1 c 2.7475,-1.13807 -1.1381,2.74755 0,0 z m 77,0 c 2.7475,-1.13807 -1.1381,2.74755 0,0 z m 4,0 c 2.7475,-1.13807 -1.1381,2.74755 0,0 z m -1485,1 c 2.74755,-1.13807 -1.13807,2.74755 0,0 z m 0,2 c 2.74755,-1.13807 -1.13807,2.74755 0,0 z m 1516,0 c 2.7475,-1.13807 -1.1381,2.74755 0,0 z m -153,1 c 2.7475,-1.13807 -1.1381,2.74755 0,0 z m -1400,1 c 2.74755,-1.13807 -1.13807,2.74755 0,0 z m -69,1 c 2.74755,-1.13807 -1.13807,2.74755 0,0 z m 1468,0 c 2.7475,-1.13807 -1.1381,2.74755 0,0 z m 105,0 c 5.1832,5.58423 -7.05,3.05393 0,0 z m -61,1 c 2.7475,-1.13807 -1.1381,2.74755 0,0 z m -1554,2 c 2.74755,-1.13807 -1.13807,2.74755 0,0 z m 153,0 c 2.74755,-1.13807 -1.13807,2.74755 0,0 z m -42,1 c 2.74755,-1.13807 -1.13807,2.74755 0,0 z m 44,0 c 2.74755,-1.13807 -1.13807,2.74755 0,0 z m 1461,2 c 2.7475,-1.13807 -1.1381,2.74755 0,0 z m 41,0 c 2.7475,-1.13807 -1.1381,2.74755 0,0 z m -1603,1 c 2.74755,-1.13807 -1.13807,2.74755 0,0 z m 1556,2 c 2.7475,-1.13807 -1.1381,2.74755 0,0 z m -1600,1 c 2.74755,-1.13807 -1.13807,2.74755 0,0 z m 48,0 c 2.74755,-1.13807 -1.13807,2.74755 0,0 z m 1445,1 c 2.7475,-1.13807 -1.1381,2.74755 0,0 z m -2,5 c 2.7475,-1.13807 -1.1381,2.74755 0,0 z m -1390,1 c 2.74755,-1.13807 -1.13807,2.74755 0,0 z m 1442,2 c 2.7475,-1.13807 -1.1381,2.74755 0,0 z m 94,0 c 2.7475,-1.13807 -1.1381,2.74755 0,0 z m -1631,1 c 2.74755,-1.13807 -1.13807,2.74755 0,0 z m 1634,1 c 2.7475,-1.13807 -1.1381,2.74755 0,0 z m -1633,1 c 2.74755,-1.13807 -1.13807,2.74755 0,0 z m 1569,2 c 2.7475,-1.13807 -1.1381,2.74755 0,0 z m -1512,1 c 2.74755,-1.13807 -1.13807,2.74755 0,0 z m 1514,0 c 2.7475,-1.13807 -1.1381,2.74755 0,0 z m -1479,1 c 2.74755,-1.13807 -1.13807,2.74755 0,0 z m 1444,1 c 2.7475,-1.13807 -1.1381,2.74755 0,0 z m 29,0 c 2.7475,-1.13807 -1.1381,2.74755 0,0 z m -28,2 c 2.7475,-1.13807 -1.1381,2.74755 0,0 z m -1378,2 c 2.74755,-1.13807 -1.13807,2.74755 0,0 z m -85,1 c 2.74755,-1.13807 -1.13807,2.74755 0,0 z m 1399,0 c 2.7475,-1.13807 -1.1381,2.74755 0,0 z m 88,0 c 2.7475,-1.13807 -1.1381,2.74755 0,0 z m -1401,1 c 2.74755,-1.13807 -1.13807,2.74755 0,0 z m 1312,1 c 2.7475,-1.13807 -1.1381,2.74755 0,0 z m -1467,2 c 5.53553,-4.12132 3.12132,9.94975 0,0 z m 1465,0 c 2.7475,-1.13807 -1.1381,2.74755 0,0 z m 67,1 3,1 z m -1525,4 c 2.74755,-1.13807 -1.13807,2.74755 0,0 z m 152,0 c 2.74755,-1.13807 -1.13807,2.74755 0,0 z m 1385,0 c 2.7475,-1.13807 -1.1381,2.74755 0,0 z m -13,2 c 2.7475,-1.13807 -1.1381,2.74755 0,0 z m -1456,1 c 2.74755,-1.13807 -1.13807,2.74755 0,0 z m 1538,0 c 2.7475,-1.13807 -1.1381,2.74755 0,0 z m -1449,2 c 2.74755,-1.13807 -1.13807,2.74755 0,0 z m -76,2 c 2.74755,-1.13807 -1.13807,2.74755 0,0 z m 146,0 c 2.74755,-1.13807 -1.13807,2.74755 0,0 z m 1221,1 c 2.7475,-1.13807 -1.1381,2.74755 0,0 z m -78,1 c 2.7475,-1.13807 -1.1381,2.74755 0,0 z m -1135,1 c 2.74755,-1.13807 -1.13807,2.74755 0,0 z m 1363,0 c 2.7475,-1.13807 -1.1381,2.74755 0,0 z m -1522,1 c 2.74755,-1.13807 -1.13807,2.74755 0,0 z m 1522,1 c 2.7475,-1.13807 -1.1381,2.74755 0,0 z m -233,2 c 2.7475,-1.13807 -1.1381,2.74755 0,0 z m -1287,1 c 2.74755,-1.13807 -1.13807,2.74755 0,0 z m 84,0 c 2.74755,-1.13807 -1.13807,2.74755 0,0 z m 1364,2 c 2.7475,-1.13807 -1.1381,2.74755 0,0 z m -1515,3 c 2.74755,-1.13807 -1.13807,2.74755 0,0 z m 70,0 c 2.74755,-1.13807 -1.13807,2.74755 0,0 z m 3,5 c -2.74755,-1.13807 1.13807,2.74755 0,0 z m 136,0 c 2.74755,-1.13807 -1.13807,2.74755 0,0 z m -47,2 c 2.74755,-1.13807 -1.13807,2.74755 0,0 z m -156,2 c 2.74755,-1.13807 -1.13807,2.74755 0,0 z m 3,2 c 2.74755,-1.13807 -1.13807,2.74755 0,0 z m 1369,0 c 2.7475,-1.13807 -1.1381,2.74755 0,0 z m -1370,2 c 2.74755,-1.13807 -1.13807,2.74755 0,0 z m 2,0 c 2.74755,-1.13807 -1.13807,2.74755 0,0 z m 226,0 c 2.74755,-1.13807 -1.13807,2.74755 0,0 z m -230,2 c 2.74755,-1.13807 -1.13807,2.74755 0,0 z m 1564,1 c 2.7475,-1.13807 -1.1381,2.74755 0,0 z m -1560,1 c 2.74755,-1.13807 -1.13807,2.74755 0,0 z m 198,0 c 2.74755,-1.13807 -1.13807,2.74755 0,0 z m 1169,0 c 2.7475,-1.13807 -1.1381,2.74755 0,0 z m -1201,1 c 2.74755,-1.13807 -1.13807,2.74755 0,0 z m 1168,1 c 2.7475,-1.13807 -1.1381,2.74755 0,0 z m -1329,2 c 2.74755,-1.13807 -1.13807,2.74755 0,0 z m 1327,0 c 2.7475,-1.13807 -1.1381,2.74755 0,0 z m 35,0 c 2.7475,-1.13807 -1.1381,2.74755 0,0 z m 1,2 c 2.7475,-1.13807 -1.1381,2.74755 0,0 z m 189,0 c 2.7475,-1.13807 -1.1381,2.74755 0,0 z m -1383,3 c 2.74755,-1.13807 -1.13807,2.74755 0,0 z m 535,0 c 2.7475,-1.13807 -1.1381,2.74755 0,0 z m 8,0 c 2.7475,-1.13807 -1.1381,2.74755 0,0 z m 27,0 c 2.7475,-1.13807 -1.1381,2.74755 0,0 z m 22,0 c 2.7475,-1.13807 -1.1381,2.74755 0,0 z m 601,0 c 2.7475,-1.13807 -1.1381,2.74755 0,0 z m -1135,1 c 2.74755,-1.13807 -1.13807,2.74755 0,0 z m 504,0 c 2.7475,-1.13807 -1.1381,2.74755 0,0 z m 22,0 c 2.7475,-1.13807 -1.1381,2.74755 0,0 z m 46,0 c 2.7475,-1.13807 -1.1381,2.74755 0,0 z m 35,0 c 2.7475,-1.13807 -1.1381,2.74755 0,0 z m 494,0 c 2.7475,-1.13807 -1.1381,2.74755 0,0 z m 58,0 c 2.7475,-1.13807 -1.1381,2.74755 0,0 z m -673,1 c 2.7475,-1.13807 -1.1381,2.74755 0,0 z m 9,0 c 2.7475,-1.13807 -1.1381,2.74755 0,0 z m 7,0 c 2.7475,-1.13807 -1.1381,2.74755 0,0 z m 62,0 c 2.7475,-1.13807 -1.1381,2.74755 0,0 z m 4,0 c 2.7475,-1.13807 -1.1381,2.74755 0,0 z m 6,0 c 2.7475,-1.13807 -1.1381,2.74755 0,0 z m 40,0 c 2.7475,-1.13807 -1.1381,2.74755 0,0 z m -132,2 c 2.7475,-1.13807 -1.1381,2.74755 0,0 z m 142,0 c 2.7475,-1.13807 -1.1381,2.74755 0,0 z m 510,0 c 2.7475,-1.13807 -1.1381,2.74755 0,0 z m 188,0 c 2.7475,-1.13807 -1.1381,2.74755 0,0 z m -186,2 c 2.7475,-1.13807 -1.1381,2.74755 0,0 z m 2,0 c 2.7475,-1.13807 -1.1381,2.74755 0,0 z m -717,2 c 2.7475,-1.13807 -1.1381,2.74755 0,0 z m 259,0 c 2.7475,-1.13807 -1.1381,2.74755 0,0 z m 456,0 c 2.7475,-1.13807 -1.1381,2.74755 0,0 z m -713,1 c 2.7475,-1.13807 -1.1381,2.74755 0,0 z m 270,0 c 2.7475,-1.13807 -1.1381,2.74755 0,0 z m 9,0 c -2.095,8.24122 -3.2787,-0.49597 0,0 z m -309,1 c 2.7475,-1.13807 -1.1381,2.74755 0,0 z m 14,0 c 2.7475,-1.13807 -1.1381,2.74755 0,0 z m 289,0 c 2.7475,-1.13807 -1.1381,2.74755 0,0 z m -733,1 c 2.74755,-1.13807 -1.13807,2.74755 0,0 z m 2,0 c 2.74755,-1.13807 -1.13807,2.74755 0,0 z m 37,0 c 2.74755,-1.13807 -1.13807,2.74755 0,0 z m 398,0 c 2.7475,-1.13807 -1.1381,2.74755 0,0 z m 5,0 c 2.7475,-1.13807 -1.1381,2.74755 0,0 z m -453,1 c 2.74755,-1.13807 -1.13807,2.74755 0,0 z m -171,1 c 2.74755,-1.13807 -1.13807,2.74755 0,0 z m 185,0 c 2.74755,-1.13807 -1.13807,2.74755 0,0 z m 36,0 c 2.74755,-1.13807 -1.13807,2.74755 0,0 z m 1148,1 c -2.7475,-1.13807 1.1381,2.74755 0,0 z m -816,2 c 2.7475,-1.13807 -1.1381,2.74755 0,0 z m 409,0 c 2.7475,-1.13807 -1.1381,2.74755 0,0 z m -735,1 c 2.74755,-1.13807 -1.13807,2.74755 0,0 z m 324,0 c 2.7475,-1.13807 -1.1381,2.74755 0,0 z m 405,0 c 2.7475,-1.13807 -1.1381,2.74755 0,0 z m 24,0 c 8.1333,3.96565 -6.1451,4.85576 0,0 z m -427,1 c 2.7475,-1.13807 -1.1381,2.74755 0,0 z m 3,0 c 2.7475,-1.13807 -1.1381,2.74755 0,0 z m 428,0 c 2.7475,-1.13807 -1.1381,2.74755 0,0 z m -805,1 c 2.74755,-1.13807 -1.13807,2.74755 0,0 z m 0,2 c 2.74755,-1.13807 -1.13807,2.74755 0,0 z m 375,0 c 2.7475,-1.13807 -1.1381,2.74755 0,0 z m -329,1 c 2.74755,-1.13807 -1.13807,2.74755 0,0 z m 776,2 c 2.7475,-1.13807 -1.1381,2.74755 0,0 z m 27,0 c 2.7475,-1.13807 -1.1381,2.74755 0,0 z m -1019,3 c 2.74755,-1.13807 -1.13807,2.74755 0,0 z m 499,0 c 5.1832,5.58423 -7.05,3.05393 0,0 z m 526,0 c 2.7475,-1.13807 -1.1381,2.74755 0,0 z m 314,0 c 2.7475,-1.13807 -1.1381,2.74755 0,0 z m -1341,2 c 2.74755,-1.13807 -1.13807,2.74755 0,0 z m 2,0 c 2.74755,-1.13807 -1.13807,2.74755 0,0 z m 494,0 c 2.7475,-1.13807 -1.1381,2.74755 0,0 z m 527,0 c 2.7475,-1.13807 -1.1381,2.74755 0,0 z m 5,0 c 2.7475,-1.13807 -1.1381,2.74755 0,0 z m 314,0 c 2.7475,-1.13807 -1.1381,2.74755 0,0 z m -1338,2 c 2.74755,-1.13807 -1.13807,2.74755 0,0 z m 3,1 c 2.74755,-1.13807 -1.13807,2.74755 0,0 z m 1053,0 c 2.7475,-1.13807 -1.1381,2.74755 0,0 z m 236,0 c 2.7475,-1.13807 -1.1381,2.74755 0,0 z m -822,1 c 2.74755,-1.13807 -1.13807,2.74755 0,0 z m 591,0 c 2.7475,-1.13807 -1.1381,2.74755 0,0 z m 450,0 c 2.7475,-1.13807 -1.1381,2.74755 0,0 z m -1286,1 c 2.74755,-1.13807 -1.13807,2.74755 0,0 z m 841,0 c 2.7475,-1.13807 -1.1381,2.74755 0,0 z m 228,0 c 2.7475,-1.13807 -1.1381,2.74755 0,0 z m 40,1 c -2.7475,-1.13807 1.1381,2.74755 0,0 z m -272,0 c 2.7475,-1.13807 -1.1381,2.74755 0,0 z m -837,1 c 2.74755,-1.13807 -1.13807,2.74755 0,0 z m 838,1 c 2.7475,-1.13807 -1.1381,2.74755 0,0 z m 448,0 c 2.7475,-1.13807 -1.1381,2.74755 0,0 z m -1287,1 c 2.74755,-1.13807 -1.13807,2.74755 0,0 z m 841,0 c 2.7475,-1.13807 -1.1381,2.74755 0,0 z m 228,0 c 2.7475,-1.13807 -1.1381,2.74755 0,0 z m -882,3 c 2.74755,-1.13807 -1.13807,2.74755 0,0 z m 10,0 c 2.74755,-1.13807 -1.13807,2.74755 0,0 z m 673,0 c 2.7475,-1.13807 -1.1381,2.74755 0,0 z m 189,0 c 2.7475,-1.13807 -1.1381,2.74755 0,0 z m -870,1 c 2.74755,-1.13807 -1.13807,2.74755 0,0 z m 6,0 c 2.74755,-1.13807 -1.13807,2.74755 0,0 z m 675,1 c 2.7475,-1.13807 -1.1381,2.74755 0,0 z m 3,0 c 2.7475,-1.13807 -1.1381,2.74755 0,0 z m 186,0 c 2.7475,-1.13807 -1.1381,2.74755 0,0 z m 2,0 c 2.7475,-1.13807 -1.1381,2.74755 0,0 z m 221,1 c 2.7475,-1.13807 -1.1381,2.74755 0,0 z m -222,1 c 2.7475,-1.13807 -1.1381,2.74755 0,0 z m -872,1 c 2.74755,-1.13807 -1.13807,2.74755 0,0 z m -399,2 c 2.74755,-1.13807 -1.13807,2.74755 0,0 z m 378,1 c 2.74755,-1.13807 -1.13807,2.74755 0,0 z m 725,0 c 2.7475,-1.13807 -1.1381,2.74755 0,0 z m -730,1 c 2.74755,-1.13807 -1.13807,2.74755 0,0 z m 896,0 c 2.7475,-1.13807 -1.1381,2.74755 0,0 z m -1270,2 c 2.74755,-1.13807 -1.13807,2.74755 0,0 z m 220,0 c 2.74755,-1.13807 -1.13807,2.74755 0,0 z m -216,1 c 2.74755,-1.13807 -1.13807,2.74755 0,0 z m 365,2 c 2.74755,-1.13807 -1.13807,2.74755 0,0 z m 896,0 c 2.7475,-1.13807 -1.1381,2.74755 0,0 z m -1036,1 c 2.74755,-1.13807 -1.13807,2.74755 0,0 z m 902,1 c 2.7475,-1.13807 -1.1381,2.74755 0,0 z m 18,0 c 2.7475,-1.13807 -1.1381,2.74755 0,0 z m -801,2 c 2.74755,-1.13807 -1.13807,2.74755 0,0 z m -119,1 c 2.74755,-1.13807 -1.13807,2.74755 0,0 z m 122,0 c 2.74755,-1.13807 -1.13807,2.74755 0,0 z m 1133,1 c 2.7475,-1.13807 -1.1381,2.74755 0,0 z m -1146,3 c 2.74755,-1.13807 -1.13807,2.74755 0,0 z m -104,1 c 2.74755,-1.13807 -1.13807,2.74755 0,0 z m 99,0 c 2.74755,-1.13807 -1.13807,2.74755 0,0 z m 822,0 c 2.7475,-1.13807 -1.1381,2.74755 0,0 z m 6,0 c 2.7475,-1.13807 -1.1381,2.74755 0,0 z m 9,1 c 2.7475,-1.13807 -1.1381,2.74755 0,0 z m 87,0 c 2.7475,-1.13807 -1.1381,2.74755 0,0 z m -935,1 c 2.74755,-1.13807 -1.13807,2.74755 0,0 z m -85,1 c 2.74755,-1.13807 -1.13807,2.74755 0,0 z m 930,0 c 2.7475,-1.13807 -1.1381,2.74755 0,0 z m 5,0 c 2.7475,-1.13807 -1.1381,2.74755 0,0 z m -1162,2 c 2.74755,-1.13807 -1.13807,2.74755 0,0 z m 232,3 c 2.74755,-1.13807 -1.13807,2.74755 0,0 z m 66,0 c 2.74755,-1.13807 -1.13807,2.74755 0,0 z m 881,0 c 2.7475,-1.13807 -1.1381,2.74755 0,0 z m -5,2 c 2.7475,-1.13807 -1.1381,2.74755 0,0 z m 290,1 3,1 z m -286,0 c 2.7475,-1.13807 -1.1381,2.74755 0,0 z m -1171,2 c 2.74755,-1.13807 -1.13807,2.74755 0,0 z m 1223,2 c 2.7475,-1.13807 -1.1381,2.74755 0,0 z m 2,0 c 2.7475,-1.13807 -1.1381,2.74755 0,0 z m -37,1 c 2.7475,-1.13807 -1.1381,2.74755 0,0 z m -913,1 c 2.74755,-1.13807 -1.13807,2.74755 0,0 z m 943,2 c 2.7475,-1.13807 -1.1381,2.74755 0,0 z m -963,6 c 2.74755,-1.13807 -1.13807,2.74755 0,0 z m 1195,4 c 2.7475,-1.13807 -1.1381,2.74755 0,0 z m -1,4 c 2.7475,-1.13807 -1.1381,2.74755 0,0 z m 4,2 c 2.7475,-1.13807 -1.1381,2.74755 0,0 z m -1447,2 c 2.74755,-1.13807 -1.13807,2.74755 0,0 z m 1445,2 c 2.7475,-1.13807 -1.1381,2.74755 0,0 z m -1443,6 c 2.74755,-1.13807 -1.13807,2.74755 0,0 z m 1,4 c 2.74755,-1.13807 -1.13807,2.74755 0,0 z m -2,3 c 2.74755,-1.13807 -1.13807,2.74755 0,0 z m 1437,6 c 2.7475,-1.13807 -1.1381,2.74755 0,0 z m -1,9 c 2.7475,-1.13807 -1.1381,2.74755 0,0 z m 0,2 c 2.7475,-1.13807 -1.1381,2.74755 0,0 z m -1428,3 c 2.74755,-1.13807 -1.13807,2.74755 0,0 z m 1430,0 c 2.7475,-1.13807 -1.1381,2.74755 0,0 z m 0,4 c 2.7475,-1.13807 -1.1381,2.74755 0,0 z m -4,5 c 2.7475,-1.13807 -1.1381,2.74755 0,0 z m 3,3 c 2.7475,-1.13807 -1.1381,2.74755 0,0 z m -3,1 c 2.7475,-1.13807 -1.1381,2.74755 0,0 z m -1424,2 c 2.74755,-1.13807 -1.13807,2.74755 0,0 z m 1427,1 c 2.7475,-1.13807 -1.1381,2.74755 0,0 z M 568,403 c 2.74755,-1.13807 -1.13807,2.74755 0,0 z m 1419,24 c 2.7475,-1.13807 -1.1381,2.74755 0,0 z m 0,2 c 2.7475,-1.13807 -1.1381,2.74755 0,0 z m -3,15 c 2.7475,-1.13807 -1.1381,2.74755 0,0 z m 0,2 c 2.7475,-1.13807 -1.1381,2.74755 0,0 z m 2,0 c 2.7475,-1.13807 -1.1381,2.74755 0,0 z m -1413,8 c 2.74755,-1.13807 -1.13807,2.74755 0,0 z m 1413,4 c 2.7475,-1.13807 -1.1381,2.74755 0,0 z m 0,4 c 2.7475,-1.13807 -1.1381,2.74755 0,0 z m -2,17 c 2.7475,-1.13807 -1.1381,2.74755 0,0 z m -1411,7 c 2.74755,-1.13807 -1.13807,2.74755 0,0 z m 1410,3 c 2.7475,-1.13807 -1.1381,2.74755 0,0 z m 4,5 c 2.7475,-1.13807 -1.1381,2.74755 0,0 z m -2,1 c 2.7475,-1.13807 -1.1381,2.74755 0,0 z m -1411,8 c 2.74755,-1.13807 -1.13807,2.74755 0,0 z m 1409,8 c 2.7475,-1.13807 -1.1381,2.74755 0,0 z m -1411,3 c 2.74755,-1.13807 -1.13807,2.74755 0,0 z m 2,4 c 2.74755,-1.13807 -1.13807,2.74755 0,0 z m 1411,10 c 2.7475,-1.13807 -1.1381,2.74755 0,0 z m -1,4 c 2.7475,-1.13807 -1.1381,2.74755 0,0 z m 2,1 c 2.7475,-1.13807 -1.1381,2.74755 0,0 z m -3,1 c 2.7475,-1.13807 -1.1381,2.74755 0,0 z m 1,3 c 2.7475,-1.13807 -1.1381,2.74755 0,0 z m -1411,3 c 2.74755,-1.13807 -1.13807,2.74755 0,0 z m 1412,0 3,1 z M 565,555 c 2.74755,-1.13807 -1.13807,2.74755 0,0 z m 2,1 c 2.74755,-1.13807 -1.13807,2.74755 0,0 z m -8,13 c 2.74755,-1.13807 -1.13807,2.74755 0,0 z m 1436,1 c 2.7475,-1.13807 -1.1381,2.74755 0,0 z m 6,8 c 2.7475,-1.13807 -1.1381,2.74755 0,0 z m -1444,1 c 2.74755,-1.13807 -1.13807,2.74755 0,0 z m 1452,6 c 2.7475,-1.13807 -1.1381,2.74755 0,0 z m 2,4 c 2.7475,-1.13807 -1.1381,2.74755 0,0 z m 6,12 c 2.7475,-1.13807 -1.1381,2.74755 0,0 z m -1476,1 c 2.74755,-1.13807 -1.13807,2.74755 0,0 z m 1477,3 c 2.7475,-1.13807 -1.1381,2.74755 0,0 z M 527,617 c 2.74755,-1.13807 -1.13807,2.74755 0,0 z m 1506,0 c 2.7475,-1.13807 -1.1381,2.74755 0,0 z m -1504,1 c 2.74755,-1.13807 -1.13807,2.74755 0,0 z m 1501,1 c 2.7475,-1.13807 -1.1381,2.74755 0,0 z m -1512,6 c 2.74755,-1.13807 -1.13807,2.74755 0,0 z m 3,2 c 2.74755,-1.13807 -1.13807,2.74755 0,0 z m 1518,5 c 2.7475,-1.13807 -1.1381,2.74755 0,0 z m -1522,2 c 2.74755,-1.13807 -1.13807,2.74755 0,0 z m -8,9 c 2.74755,-1.13807 -1.13807,2.74755 0,0 z m -9,8 c 2.74755,-1.13807 -1.13807,2.74755 0,0 z m 2,0 c 2.74755,-1.13807 -1.13807,2.74755 0,0 z m -1,2 c 2.74755,-1.13807 -1.13807,2.74755 0,0 z m 1,2 c 2.74755,-1.13807 -1.13807,2.74755 0,0 z m 1556,7 c 2.7475,-1.13807 -1.1381,2.74755 0,0 z m 3,2 c 2.7475,-1.13807 -1.1381,2.74755 0,0 z m 3,0 c 2.7475,-1.13807 -1.1381,2.74755 0,0 z m -2,4 c 2.7475,-1.13807 -1.1381,2.74755 0,0 z m 5,0 c 2.7475,-1.13807 -1.1381,2.74755 0,0 z m -1583,7 c 2.74755,-1.13807 -1.13807,2.74755 0,0 z m 2,0 c 2.74755,-1.13807 -1.13807,2.74755 0,0 z m -1,2 c 2.74755,-1.13807 -1.13807,2.74755 0,0 z m 1,2 c 2.74755,-1.13807 -1.13807,2.74755 0,0 z m -13,17 c 2.74755,-1.13807 -1.13807,2.74755 0,0 z m -4,2 c 2.74755,-1.13807 -1.13807,2.74755 0,0 z m 2,0 c 2.74755,-1.13807 -1.13807,2.74755 0,0 z m 0,2 c 2.74755,-1.13807 -1.13807,2.74755 0,0 z m 1618,6 c 2.7475,-1.13807 -1.1381,2.74755 0,0 z m 1,4 c 2.7475,-1.13807 -1.1381,2.74755 0,0 z m -1624,3 c 2.74755,-1.13807 -1.13807,2.74755 0,0 z m -5,1 c 2.74755,-1.13807 -1.13807,2.74755 0,0 z m 1633,3 c 2.7475,-1.13807 -1.1381,2.74755 0,0 z m 12,12 c 2.7475,-1.13807 -1.1381,2.74755 0,0 z m -1660,9 c 2.74755,-1.13807 -1.13807,2.74755 0,0 z m 1674,14 c 9.9497,3.12132 -4.1213,5.53553 0,0 z m -1681,2 c 2.74755,-1.13807 -1.13807,2.74755 0,0 z m 1677,1 c 2.7475,-1.13807 -1.1381,2.74755 0,0 z m -1677,1 c 2.74755,-1.13807 -1.13807,2.74755 0,0 z m 1684,5 c 2.7475,-1.13807 -1.1381,2.74755 0,0 z m 5,13 c 2.7475,-1.13807 -1.1381,2.74755 0,0 z m -1703,2 c 2.74755,-1.13807 -1.13807,2.74755 0,0 z m -4,2 c 2.74755,-1.13807 -1.13807,2.74755 0,0 z m 2,0 c 2.74755,-1.13807 -1.13807,2.74755 0,0 z m 0,2 c 2.74755,-1.13807 -1.13807,2.74755 0,0 z m 1710,4 c 2.7475,-1.13807 -1.1381,2.74755 0,0 z m 3,3 c 2.7475,-1.13807 -1.1381,2.74755 0,0 z m -1721,7 c 2.74755,-1.13807 -1.13807,2.74755 0,0 z m 1728,6 c 2.7475,-1.13807 -1.1381,2.74755 0,0 z m -1736,8 c 2.74755,-1.13807 -1.13807,2.74755 0,0 z m -1,2 c 2.74755,-1.13807 -1.13807,2.74755 0,0 z m -1,2 c 2.74755,-1.13807 -1.13807,2.74755 0,0 z m 1749,5 c 2.7475,-1.13807 -1.1381,2.74755 0,0 z m -1,4 c 2.7475,-1.13807 -1.1381,2.74755 0,0 z m 9,4 c 2.7475,-1.13807 -1.1381,2.74755 0,0 z m 1,14 c 2.7475,-1.13807 -1.1381,2.74755 0,0 z m -1772,5 c 2.74755,-1.13807 -1.13807,2.74755 0,0 z m -3,1 c 2.74755,-1.13807 -1.13807,2.74755 0,0 z m 1783,10 c 2.7475,-1.13807 -1.1381,2.74755 0,0 z m -1785,1 c 2.74755,-1.13807 -1.13807,2.74755 0,0 z m -6,3 c 2.74755,-1.13807 -1.13807,2.74755 0,0 z m 2,2 c 2.74755,-1.13807 -1.13807,2.74755 0,0 z m 1793,4 c 2.7475,-1.13807 -1.1381,2.74755 0,0 z m 3,2 c 2.7475,-1.13807 -1.1381,2.74755 0,0 z m -1801,8 c 2.74755,-1.13807 -1.13807,2.74755 0,0 z m -1,2 c 2.74755,-1.13807 -1.13807,2.74755 0,0 z m -2,4 c 2.74755,-1.13807 -1.13807,2.74755 0,0 z m -1,2 c 2.74755,-1.13807 -1.13807,2.74755 0,0 z m 1814,1 c 2.7475,-1.13807 -1.1381,2.74755 0,0 z m -1815,1 c 2.74755,-1.13807 -1.13807,2.74755 0,0 z m -2,4 c 2.74755,-1.13807 -1.13807,2.74755 0,0 z m 1816,0 c 2.7475,-1.13807 -1.1381,2.74755 0,0 z m -1818,5 c 2.74755,-1.13807 -1.13807,2.74755 0,0 z m 420,7 c -73.49499,-24.34652 -162.7817,28.59283 -156,110 -28.17674,173.5659 150.52742,338.234 323.57976,294.2461 C 1024.8039,1288.7266 1088.5546,1251.1088 1115,1180 c 22.3715,-39.0117 48.9903,-116.3456 -5,-146 -50.0337,-63.26507 -10.2475,49.4353 -35.45,71 -25.4483,90.2724 -157.90815,125.6341 -222.1575,49.6037 C 795.63911,1105.91 796.71668,999.81354 852.8,940.91 904.88353,908.51651 804.20382,915.33958 788,901 Z m 1057,0 c -43.8037,-10.1534 -131.0187,69.70374 -147.7834,37.71892 89.4398,78.28498 40.4485,247.54308 -78.313,256.97888 -85.7472,12.0801 -160.0832,-73.3956 -149.9036,-152.8683 15.0585,-61.45185 -48.2304,57.7669 -50.9,35.0005 -3.1522,97.0703 51.2369,182.2487 145.0491,215.7181 101.0891,38.9818 213.0608,10.5494 286.3009,-60.8606 71.3235,-71.7674 100.6154,-188.1126 62.55,-284.6875 -8.7657,-14.24652 -41.2275,-43.86287 -67,-47 z m 347,-4 c 2.7475,-1.13807 -1.1381,2.74755 0,0 z m -1434,1 c 2.74755,-1.13807 -1.13807,2.74755 0,0 z m 1071,0 c 2.7475,-1.13807 -1.1381,2.74755 0,0 z m 3,0 c 2.7475,-1.13807 -1.1381,2.74755 0,0 z m -1072,1 c 2.74755,-1.13807 -1.13807,2.74755 0,0 z m 9,0 c 2.74755,-1.13807 -1.13807,2.74755 0,0 z m -404,1 c 2.74755,-1.13807 -1.13807,2.74755 0,0 z m 1474,0 c 2.7475,-1.13807 -1.1381,2.74755 0,0 z m -1115,1 c 2.74755,-1.13807 -1.13807,2.74755 0,0 z m 1057,0 c 2.7475,-1.13807 -1.1381,2.74755 0,0 z m -1003,1 c 2.74755,-1.13807 -1.13807,2.74755 0,0 z m 995,0 c 2.7475,-1.13807 -1.1381,2.74755 0,0 z m 12,0 c 2.7475,-1.13807 -1.1381,2.74755 0,0 z m 9,0 c 2.7475,-1.13807 -1.1381,2.74755 0,0 z m 8,0 c 2.7475,-1.13807 -1.1381,2.74755 0,0 z m 33,0 c 2.7475,-1.13807 -1.1381,2.74755 0,0 z m 5,0 c 2.7475,-1.13807 -1.1381,2.74755 0,0 z m -1043,3 c 2.74755,-1.13807 -1.13807,2.74755 0,0 z m -98,1 c 2.74755,-1.13807 -1.13807,2.74755 0,0 z m 1155,1 c 2.7475,-1.13807 -1.1381,2.74755 0,0 z m 5,0 c 2.7475,-1.13807 -1.1381,2.74755 0,0 z m -1061,2 c 2.74755,-1.13807 -1.13807,2.74755 0,0 z m 8,0 c 2.74755,-1.13807 -1.13807,2.74755 0,0 z m 3,0 c 2.74755,-1.13807 -1.13807,2.74755 0,0 z m 1047,0 c 2.7475,-1.13807 -1.1381,2.74755 0,0 z m -1060,1 c 2.74755,-1.13807 -1.13807,2.74755 0,0 z m 28,1 c 2.74755,-1.13807 -1.13807,2.74755 0,0 z m 1375,2 c 2.7475,-1.13807 -1.1381,2.74755 0,0 z m -1841,2 c 2.74755,-1.13807 -1.13807,2.74755 0,0 z m 473,1 c 2.74755,-1.13807 -1.13807,2.74755 0,0 z m 1037,0 c 2.7475,-1.13807 -1.1381,2.74755 0,0 z m -1026,1 c 2.74755,-1.13807 -1.13807,2.74755 0,0 z m -161,2 c 2.74755,-1.13807 -1.13807,2.74755 0,0 z m -324,2 c 2.74755,-1.13807 -1.13807,2.74755 0,0 z m 504,1 c 2.74755,-1.13807 -1.13807,2.74755 0,0 z m 837,1 c 2.7475,-1.13807 -1.1381,2.74755 0,0 z m 187,0 c 2.7475,-1.13807 -1.1381,2.74755 0,0 z m -1021,1 c 2.74755,-1.13807 -1.13807,2.74755 0,0 z m 1337,0 c 2.7475,-1.13807 -1.1381,2.74755 0,0 z m -1529,1 c 2.74755,-1.13807 -1.13807,2.74755 0,0 z m 190,0 c 2.74755,-1.13807 -1.13807,2.74755 0,0 z m 833,1 c 2.7475,-1.13807 -1.1381,2.74755 0,0 z m 507,0 c 2.7475,-1.13807 -1.1381,2.74755 0,0 z m -1345,2 c 2.74755,-1.13807 -1.13807,2.74755 0,0 z m -506,3 c 2.74755,-1.13807 -1.13807,2.74755 0,0 z m 1345,0 c 2.7475,-1.13807 -1.1381,2.74755 0,0 z m 2,0 c 2.7475,-1.13807 -1.1381,2.74755 0,0 z m -1034,1 c 2.74755,-1.13807 -1.13807,2.74755 0,0 z m 1230,0 c 2.7475,-1.13807 -1.1381,2.74755 0,0 z m -1042,1 c 2.74755,-1.13807 -1.13807,2.74755 0,0 z m -501,1 c 2.74755,-1.13807 -1.13807,2.74755 0,0 z m 498,2 c 2.74755,-1.13807 -1.13807,2.74755 0,0 z m 1358,3 c 2.7475,-1.13807 -1.1381,2.74755 0,0 z m -1550,2 c 2.74755,-1.13807 -1.13807,2.74755 0,0 z m 187,0 c 2.74755,-1.13807 -1.13807,2.74755 0,0 z m 1057,0 c 2.7475,-1.13807 -1.1381,2.74755 0,0 z m -187,4 c 2.7475,-1.13807 -1.1381,2.74755 0,0 z m -1067,5 c 2.74755,-1.13807 -1.13807,2.74755 0,0 z m 1067,4 c 2.7475,-1.13807 -1.1381,2.74755 0,0 z m -1370,1 c 2.74755,-1.13807 -1.13807,2.74755 0,0 z m 486,7 c 2.74755,-1.13807 -1.13807,2.74755 0,0 z m 1386,0 c 2.671,6.78598 -3.25,0.69573 0,0 z m -1875,2 c 2.74755,-1.13807 -1.13807,2.74755 0,0 z m 1874,2 c -2.7475,-1.13807 1.1381,2.74755 0,0 z m -1387,0 c 2.74755,-1.13807 -1.13807,2.74755 0,0 z m 1390,0 c 2.7475,-1.13807 -1.1381,2.74755 0,0 z m -488,3 c 2.7475,-1.13807 -1.1381,2.74755 0,0 z m -4,1 c 2.7475,-1.13807 -1.1381,2.74755 0,0 z m 492,0 c 2.7475,-1.13807 -1.1381,2.74755 0,0 z m -1881,7 c 2.74755,-1.13807 -1.13807,2.74755 0,0 z m 485,1 c 2.74755,-1.13807 -1.13807,2.74755 0,0 z m 1397,0 c 2.7475,-1.13807 -1.1381,2.74755 0,0 z m -490,2 c 2.7475,-1.13807 -1.1381,2.74755 0,0 z m 490,0 c 2.7475,-1.13807 -1.1381,2.74755 0,0 z m -1884,2 c 2.74755,-1.13807 -1.13807,2.74755 0,0 z m 1583,0 c 2.7475,-1.13807 -1.1381,2.74755 0,0 z m -1584,2 c 2.74755,-1.13807 -1.13807,2.74755 0,0 z m 1587,1 c 3.1683,6.2692 -3.8551,1.32452 0,0 z m -1586,3 c 2.74755,-1.13807 -1.13807,2.74755 0,0 z m 1584,1 c 2.7475,-1.13807 -1.1381,2.74755 0,0 z m -2,1 c 2.7475,-1.13807 -1.1381,2.74755 0,0 z m -1583,3 c 2.74755,-1.13807 -1.13807,2.74755 0,0 z m 484,0 c 2.74755,-1.13807 -1.13807,2.74755 0,0 z m 921,3 c 2.7475,-1.13807 -1.1381,2.74755 0,0 z m 484,0 c 2.7475,-1.13807 -1.1381,2.74755 0,0 z m -1889,1 c 2.74755,-1.13807 -1.13807,2.74755 0,0 z m 1891,0 c 2.7475,-1.13807 -1.1381,2.74755 0,0 z m -487,1 c 2.7475,-1.13807 -1.1381,2.7475 0,0 z m 487,2 c 2.7475,-1.13807 -1.1381,2.7475 0,0 z m -1591,1 c 2.74755,-1.13807 -1.13807,2.7475 0,0 z m 180,2 c 2.74755,-1.1381 -1.13807,2.7475 0,0 z m -181,8 c 2.74755,-1.1381 -1.13807,2.7475 0,0 z m 449,0 c 2.7475,-1.1381 -1.1381,2.7475 0,0 z m 1144,1 c 2.7475,-1.1381 -1.1381,2.7475 0,0 z m -480,5 c 2.7475,-1.1381 -1.1381,2.7475 0,0 z m 481,3 c 2.7475,-1.1381 -1.1381,2.7475 0,0 z m -1593,1 c 2.74755,-1.1381 -1.13807,2.7475 0,0 z m 461,0 c 2.7475,-1.1381 -1.1381,2.7475 0,0 z m 649,1 c 2.7475,-1.1381 -1.1381,2.7475 0,0 z m 482,0 c 2.7475,-1.1381 -1.1381,2.7475 0,0 z m -482,2 c 2.7475,-1.1381 -1.1381,2.7475 0,0 z m -936,1 c 2.74755,-1.1381 -1.13807,2.7475 0,0 z m 292,2 c 2.7475,-1.1381 -1.1381,2.7475 0,0 z m -469,1 c 2.74755,-1.1381 -1.13807,2.7475 0,0 z m 1293,0 c 2.7475,-1.1381 -1.1381,2.7475 0,0 z m -1290,1 c 2.74755,-1.1381 -1.13807,2.7475 0,0 z m 467,1 c 2.7475,-1.1381 -1.1381,2.7475 0,0 z m -468,1 c 2.74755,-1.1381 -1.13807,2.7475 0,0 z m -307,2 c 2.74755,-1.1381 -1.13807,2.7475 0,0 z m 481,0 c 2.74755,-1.1381 -1.13807,2.7475 0,0 z m 2,0 c 2.74755,-1.1381 -1.13807,2.7475 0,0 z m -484,2 c 2.74755,-1.1381 -1.13807,2.7475 0,0 z m 4,1 c 3.1683,6.2692 -3.85507,1.3245 0,0 z m 477,0 c 2.74755,-1.1381 -1.13807,2.7475 0,0 z m 303,0 c 2.7475,-1.1381 -1.1381,2.7475 0,0 z m 337,0 c 2.7475,-1.1381 -1.1381,2.7475 0,0 z m 481,0 c 2.7475,-1.1381 -1.1381,2.7475 0,0 z m -816,2 c 2.7475,-1.1381 -1.1381,2.7475 0,0 z m 327,3 c -2.7475,-1.1381 1.1381,2.7475 0,0 z m -316,1 c -2.7475,-1.1381 1.1381,2.7475 0,0 z m -316,1 c 2.74755,-1.1381 -1.13807,2.7475 0,0 z m 939,2 c 2.7475,-1.1381 -1.1381,2.7475 0,0 z m 490,0 c 2.7475,-1.1381 -1.1381,2.7475 0,0 z m -1146,1 c 2.7475,-1.1381 -1.1381,2.7475 0,0 z m 342,3 3,3 z m 807,0 c 2.7475,-1.1381 -1.1381,2.7475 0,0 z m -1921,1 c 2.74755,-1.1381 -1.13807,2.7475 0,0 z m 316,0 c 2.74755,-1.1381 -1.13807,2.7475 0,0 z m 1607,1 c 2.7475,-1.1381 -1.1381,2.7475 0,0 z m -1608,1 c 2.74755,-1.1381 -1.13807,2.7475 0,0 z m -315,1 c 2.74755,-1.1381 -1.13807,2.7475 0,0 z m 313,0 c 2.74755,-1.1381 -1.13807,2.7475 0,0 z m 1610,0 c 2.7475,-1.1381 -1.1381,2.7475 0,0 z m -1608,1 c 2.74755,-1.1381 -1.13807,2.7475 0,0 z m 492,0 c 2.7475,-1.1381 -1.1381,2.7475 0,0 z m 6,0 c 2.7475,-1.1381 -1.1381,2.7475 0,0 z m 300,0 c 2.7475,-1.1381 -1.1381,2.7475 0,0 z m 494,0 c 2.7475,-1.1381 -1.1381,2.7475 0,0 z m -798,1 c 2.7475,-1.1381 -1.1381,2.7475 0,0 z m -818,1 c 2.74755,-1.1381 -1.13807,2.7475 0,0 z m 1938,0 c 2.7475,-1.1381 -1.1381,2.7475 0,0 z m -821,1 c 2.7475,-1.1381 -1.1381,2.7475 0,0 z m 320,0 c 2.7475,-1.1381 -1.1381,2.7475 0,0 z m 180,0 c 2.7475,-1.1381 -1.1381,2.7475 0,0 z m -1292,1 c 2.74755,-1.1381 -1.13807,2.7475 0,0 z m 174,0 c 2.74755,-1.1381 -1.13807,2.7475 0,0 z m 938,1 c 2.7475,-1.1381 -1.1381,2.7475 0,0 z m -1111,1 c 2.74755,-1.1381 -1.13807,2.7475 0,0 z m 172,0 c 2.74755,-1.1381 -1.13807,2.7475 0,0 z m 616,1 c 2.7475,-1.1381 -1.1381,2.7475 0,0 z m 829,0 c 2.7475,-1.1381 -1.1381,2.7475 0,0 z m -1617,2 c 2.74755,-1.1381 -1.13807,2.7475 0,0 z m 173,3 c 2.74755,-1.1381 -1.13807,2.7475 0,0 z m -502,1 c 2.74755,-1.1381 -1.13807,2.7475 0,0 z m 1440,0 c 2.7475,-1.1381 -1.1381,2.7475 0,0 z m -2,1 c 2.7475,-1.1381 -1.1381,2.7475 0,0 z m 182,0 c 2.7475,-1.1381 -1.1381,2.7475 0,0 z m -1120,1 c 2.74755,-1.1381 -1.13807,2.7475 0,0 z m 329,0 c 2.7475,-1.1381 -1.1381,2.7475 0,0 z m 3,1 c 2.7475,-1.1381 -1.1381,2.7475 0,0 z m -504,1 c 2.74755,-1.1381 -1.13807,2.7475 0,0 z m -337,1 c 2.74755,-1.1381 -1.13807,2.7475 0,0 z m 1966,0 c 2.7475,-1.1381 -1.1381,2.7475 0,0 z m -520,2 c 2.7475,-1.1381 -1.1381,2.7475 0,0 z m 2,0 c 2.7475,-1.1381 -1.1381,2.7475 0,0 z m -276,2 c 2.7475,-1.1381 -1.1381,2.7475 0,0 z m 275,1 c 2.7475,-1.1381 -1.1381,2.7475 0,0 z m 524,0 c 2.7475,-1.1381 -1.1381,2.7475 0,0 z m -1982,4 c 2.74755,-1.1381 -1.13807,2.7475 0,0 z m 798,0 c 2.7475,-1.1381 -1.1381,2.7475 0,0 z m 1189,2 c 2.7475,-1.1381 -1.1381,2.7475 0,0 z m -1986,1 c 2.74755,-1.1381 -1.13807,2.7475 0,0 z m -7,4 c 2.74755,-1.1381 -1.13807,2.7475 0,0 z m 534,1 c 2.74755,-1.1381 -1.13807,2.7475 0,0 z m 1109,0 c 2.7475,-1.1381 -1.1381,2.7475 0,0 z m -1644,2 c 2.74755,-1.1381 -1.13807,2.7475 0,0 z m 1192,0 c 2.7475,-1.1381 -1.1381,2.7475 0,0 z m -1194,1 c 2.74755,-1.1381 -1.13807,2.7475 0,0 z m 1642,0 c 2.7475,-1.1381 -1.1381,2.7475 0,0 z m 4,0 c 2.7475,-1.1381 -1.1381,2.7475 0,0 z m -1109,1 c 2.74755,-1.1381 -1.13807,2.7475 0,0 z m 328,1 c 2.7475,-1.1381 -1.1381,2.7475 0,0 z m 1147,3 c 2.7475,-1.1381 -1.1381,2.7475 0,0 z m -1210,1 c 2.7475,-1.1381 -1.1381,2.7475 0,0 z m 2,0 c 2.7475,-1.1381 -1.1381,2.7475 0,0 z m 391,2 c 2.7475,-1.1381 -1.1381,2.7475 0,0 z m 818,1 c 2.7475,-1.1381 -1.1381,2.7475 0,0 z m 5,3 c 2.7475,-1.1381 -1.1381,2.7475 0,0 z m -1651,4 c 2.74755,-1.1381 -1.13807,2.7475 0,0 z m 1093,0 c 2.7475,-1.1381 -1.1381,2.7475 0,0 z m 182,0 c 2.7475,-1.1381 -1.1381,2.7475 0,0 z m -442,5 c 2.7475,-1.1381 -1.1381,2.7475 0,0 z m 826,0 c 2.7475,-1.1381 -1.1381,2.7475 0,0 z m -2057,1 c 2.74755,-1.1381 -1.13807,2.7475 0,0 z m 829,2 c 2.7475,-1.1381 -1.1381,2.7475 0,0 z m 404,0 c 2.7475,-1.1381 -1.1381,2.7475 0,0 z m 251,0 c 2.7475,-1.1381 -1.1381,2.7475 0,0 z m -1482,1 c 2.74755,-1.1381 -1.13807,2.7475 0,0 z m 827,1 c 2.7475,-1.1381 -1.1381,2.7475 0,0 z m -432,1 c 2.74755,-1.1381 -1.13807,2.7475 0,0 z m 784,2 c 2.7475,-1.1381 -1.1381,2.7475 0,0 z m 483,0 3,3 z m -776,1 c 2.7475,-1.1381 -1.1381,2.7475 0,0 z m 291,0 c 2.7475,-1.1381 -1.1381,2.7475 0,0 z m -1185,1 c 2.74755,-1.1381 -1.13807,2.7475 0,0 z m 583,0 c 2.74755,-1.1381 -1.13807,2.7475 0,0 z m 1498,0 c 2.7475,-1.1381 -1.1381,2.7475 0,0 z m -898,1 v 3 z m 491,0 c 2.7475,-1.1381 -1.1381,2.7475 0,0 z m -1089,1 c 2.74755,-1.1381 -1.13807,2.7475 0,0 z m 309,3 c 2.7475,-1.1381 -1.1381,2.7475 0,0 z m 778,0 c 2.7475,-1.1381 -1.1381,2.7475 0,0 z m -846,1 c 2.7475,-1.1381 -1.1381,2.7475 0,0 z m -835,1 c 2.74755,-1.1381 -1.13807,2.7475 0,0 z m 835,1 c 2.7475,-1.1381 -1.1381,2.7475 0,0 z m 658,0 c 2.7475,-1.1381 -1.1381,2.7475 0,0 z m 187,0 c 2.7475,-1.1381 -1.1381,2.7475 0,0 z m 418,0 c 2.7475,-1.1381 -1.1381,2.7475 0,0 z m -905,1 c 2.7475,-1.1381 -1.1381,2.7475 0,0 z m 67,1 c 2.7475,-1.1381 -1.1381,2.7475 0,0 z m -842,1 c 2.74755,-1.1381 -1.13807,2.7475 0,0 z m 484,0 c 2.7475,-1.1381 -1.1381,2.7475 0,0 z m -482,1 c 2.74755,-1.1381 -1.13807,2.7475 0,0 z m 182,0 c 2.74755,-1.1381 -1.13807,2.7475 0,0 z m -182,6 c 2.74755,-1.1381 -1.13807,2.7475 0,0 z m 477,4 c 2.7475,-1.1381 -1.1381,2.7475 0,0 z m -475,1 c 2.74755,-1.1381 -1.13807,2.7475 0,0 z m 1250,0 c 2.7475,-1.1381 -1.1381,2.7475 0,0 z m 2,0 c 2.7475,-1.1381 -1.1381,2.7475 0,0 z m 423,0 3,3 z m -1201,1 c 2.7475,-1.1381 -1.1381,2.7475 0,0 z m -76,2 c 2.7475,-1.1381 -1.1381,2.7475 0,0 z m 450,1 c 2.7475,-1.1381 -1.1381,2.7475 0,0 z m 830,0 c 2.7475,-1.1381 -1.1381,2.7475 0,0 z m -1673,1 c 2.74755,-1.1381 -1.13807,2.7475 0,0 z m 1244,0 c 2.7475,-1.1381 -1.1381,2.7475 0,0 z m -850,3 c 2.7475,-1.1381 -1.1381,2.7475 0,0 z m -828,1 c 2.74755,-1.1381 -1.13807,2.7475 0,0 z m 1482,1 c 2.7475,-1.1381 -1.1381,2.7475 0,0 z m -273,1 c 2.7475,-1.1381 -1.1381,2.7475 0,0 z m -390,2 c 2.7475,-1.1381 -1.1381,2.7475 0,0 z m 4,0 c 2.7475,-1.1381 -1.1381,2.7475 0,0 z m 849,1 c 2.7475,-1.1381 -1.1381,2.7475 0,0 z m -852,2 c 2.7475,-1.1381 -1.1381,2.7475 0,0 z m 852,0 c 2.7475,-1.1381 -1.1381,2.7475 0,0 z m 1,3 c 2.7475,-1.1381 -1.1381,2.7475 0,0 z m 446,0 c 2.7475,-1.1381 -1.1381,2.7475 0,0 z m -1222,1 c 2.7475,-1.1381 -1.1381,2.7475 0,0 z m -85,1 c 2.7475,-1.1381 -1.1381,2.7475 0,0 z m 3,0 c 2.7475,-1.1381 -1.1381,2.7475 0,0 z m -175,5 c 2.74755,-1.1381 -1.13807,2.7475 0,0 z m 254,0 c 2.7475,-1.1381 -1.1381,2.7475 0,0 z m 1230,0 c 2.7475,-1.1381 -1.1381,2.7475 0,0 z m -819,1 c 2.7475,-1.1381 -1.1381,2.7475 0,0 z m 816,0 c 2.7475,-1.1381 -1.1381,2.7475 0,0 z m -654,1 c 2.7475,-1.1381 -1.1381,2.7475 0,0 z m -10,1 c 2.7475,-1.1381 -1.1381,2.7475 0,0 z m 663,0 c 2.7475,-1.1381 -1.1381,2.7475 0,0 z m -902,2 c 2.7475,-1.1381 -1.1381,2.7475 0,0 z m 445,0 c 2.7475,-1.1381 -1.1381,2.7475 0,0 z m -1214,1 c 2.74755,-1.1381 -1.13807,2.7475 0,0 z m 345,0 c 2.7475,-1.1381 -1.1381,2.7475 0,0 z m 95,0 c 2.7475,-1.1381 -1.1381,2.7475 0,0 z m 329,1 c 2.7475,-1.1381 -1.1381,2.7475 0,0 z m -1217,1 c 2.74755,-1.1381 -1.13807,2.7475 0,0 z m 449,0 c 2.74755,-1.1381 -1.13807,2.7475 0,0 z m 437,2 c 2.7475,-1.1381 -1.1381,2.7475 0,0 z m 565,0 c 2.7475,-1.1381 -1.1381,2.7475 0,0 z m -798,1 c 2.74755,-1.1381 -1.13807,2.7475 0,0 z m 660,0 c 2.7475,-1.1381 -1.1381,2.7475 0,0 z m 6,0 c 2.7475,-1.1381 -1.1381,2.7475 0,0 z m 781,0 c 2.7475,-1.1381 -1.1381,2.7475 0,0 z m -1214,1 c 2.7475,-1.1381 -1.1381,2.7475 0,0 z m -877,2 c 2.74755,-1.1381 -1.13807,2.7475 0,0 z m 2089,0 c 2.7475,-1.1381 -1.1381,2.7475 0,0 z m 3,0 c 2.7475,-1.1381 -1.1381,2.7475 0,0 z m -2094,1 c 2.74755,-1.1381 -1.13807,2.7475 0,0 z m 10,0 c 2.74755,-1.1381 -1.13807,2.7475 0,0 z m 2072,1 c 2.7475,-1.1381 -1.1381,2.7475 0,0 z m -2083,1 c 2.74755,-1.1381 -1.13807,2.7475 0,0 z m 763,0 c 2.74755,-1.1381 -1.13807,2.7475 0,0 z m 2,0 c 2.74755,-1.1381 -1.13807,2.7475 0,0 z m 3,0 c 2.7475,-1.1381 -1.13807,2.7475 0,0 z m 656,0 c 2.7475,-1.1381 -1.1381,2.7475 0,0 z m 227,0 c 2.7475,-1.1381 -1.1381,2.7475 0,0 z m 439,0 c 2.7475,-1.1381 -1.1381,2.7475 0,0 z m -1320,1 c 2.7475,-1.1381 -1.13807,2.7475 0,0 z m 558,0 c 2.7475,-1.1381 -1.1381,2.7475 0,0 z m -655,1 c 2.74755,-1.1381 -1.13807,2.7475 0,0 z m -223,1 c 2.74755,-1.1381 -1.13807,2.7475 0,0 z m 230,0 c 2.74755,-1.1381 -1.13807,2.7475 0,0 z m 535,0 c 2.7475,-1.1381 -1.1381,2.7475 0,0 z m -1231,1 c 2.74755,-1.1381 -1.13807,2.7475 0,0 z m 468,0 c 2.74755,-1.1381 -1.13807,2.7475 0,0 z m 420,0 c 2.7475,-1.1381 -1.1381,2.7475 0,0 z m -125,2 c 2.74755,-1.1381 -1.13807,2.7475 0,0 z m 125,0 c 2.7475,-1.1381 -1.1381,2.7475 0,0 z m 539,0 c 2.7475,-1.1381 -1.1381,2.7475 0,0 z m -960,1 c 2.74755,-1.1381 -1.13807,2.7475 0,0 z m 286,0 c 2.74755,-1.1381 -1.13807,2.7475 0,0 z m 6,0 c 2.74755,-1.1381 -1.13807,2.7475 0,0 z m 2,0 c 2.74755,-1.1381 -1.13807,2.7475 0,0 z m 1371,0 c 2.7475,-1.1381 -1.1381,2.7475 0,0 z m -1431,1 c 2.74755,-1.1381 -1.13807,2.7475 0,0 z m 13,0 c 2.74755,-1.1381 -1.13807,2.7475 0,0 z m 13,0 c 2.74755,-1.1381 -1.13807,2.7475 0,0 z m 5,0 c 2.74755,-1.1381 -1.13807,2.7475 0,0 z m 640,0 c 2.7475,-1.1381 -1.1381,2.7475 0,0 z m 44,0 c 2.7475,-1.1381 -1.1381,2.7475 0,0 z m 9,0 c 2.7475,-1.1381 -1.1381,2.7475 0,0 z m -538,1 c 2.7475,-1.1381 -1.1381,2.7475 0,0 z m -124,1 c 2.74755,-1.1381 -1.13807,2.7475 0,0 z m 622,0 c 2.7475,-1.1381 -1.1381,2.7475 0,0 z m -909,1 c 2.74755,-1.1381 -1.13807,2.7475 0,0 z m 1180,3 c 2.7475,-1.1381 -1.1381,2.7475 0,0 z m -1181,1 c 2.74755,-1.1381 -1.13807,2.7475 0,0 z m -484,1 c 2.74755,-1.1381 -1.13807,2.7475 0,0 z m 1661,3 c 2.7475,-1.1381 -1.1381,2.7475 0,0 z m -1661,2 c 2.74755,-1.1381 -1.13807,2.7475 0,0 z m 1655,0 c 2.7475,-1.1381 -1.1381,2.7475 0,0 z m 2,0 c 2.7475,-1.1381 -1.1381,2.7475 0,0 z m 4,0 c 2.7475,-1.1381 -1.1381,2.7475 0,0 z m -1660,3 c 2.74755,-1.1381 -1.13807,2.7475 0,0 z m 17,0 c 2.74755,-1.1381 -1.13807,2.7475 0,0 z m -14,1 c 2.74755,-1.1381 -1.13807,2.7475 0,0 z m 12,0 c 2.74755,-1.1381 -1.13807,2.7475 0,0 z m 874,0 c 2.7475,-1.1381 -1.1381,2.7475 0,0 z m 768,0 c 2.7475,-1.1381 -1.1381,2.7475 0,0 z m -770,2 c 2.7475,-1.1381 -1.1381,2.7475 0,0 z m 372,1 c 2.7475,-1.1381 -1.1381,2.7475 0,0 z m 2,0 c 2.7475,-1.1381 -1.1381,2.7475 0,0 z m -379,1 c 2.7475,-1.1381 -1.1381,2.7475 0,0 z m 247,50 c -44.1223,-104.6649 -118.4711,-6.0155 -141.23,47.1925 16.256,65.7555 44.7259,126.7333 83.4,183.0675 25.768,-25.648 38.7772,-61.732 55.0703,-90.0393 19.56,-47.5225 51.7182,-99.6754 2.7597,-140.2207 z m 986,-50 c 2.7475,-1.1381 -1.1381,2.7475 0,0 z m -1048,2 c -2.7475,-1.1381 1.1381,2.7475 0,0 z m 191,-1 c 2.671,6.786 -3.25,0.6957 0,0 z m -1226,1 c 2.74755,-1.1381 -1.13807,2.7475 0,0 z m 2,0 c 2.74755,-1.1381 -1.13807,2.7475 0,0 z m 846,0 c 2.7475,-1.1381 -1.1381,2.7475 0,0 z m 5,0 c 2.7475,-1.1381 -1.1381,2.7475 0,0 z m 764,0 c 2.7475,-1.1381 -1.1381,2.7475 0,0 z m 3,0 c 2.7475,-1.1381 -1.1381,2.7475 0,0 z m -582,1 c 2.7475,-1.1381 -1.1381,2.7475 0,0 z m 190,0 c 2.7475,-1.1381 -1.1381,2.7475 0,0 z m -1230,1 c 2.74755,-1.1381 -1.13807,2.7475 0,0 z m 2,0 c 2.74755,-1.1381 -1.13807,2.7475 0,0 z m 2084,0 c 2.7475,-1.1381 -1.1381,2.7475 0,0 z m -2076,1 c 2.74755,-1.1381 -1.13807,2.7475 0,0 z m 842,0 c 2.7475,-1.1381 -1.1381,2.7475 0,0 z m 382,1 c 2.7475,-1.1381 -1.1381,2.7475 0,0 z m -1218,3 c 2.74755,-1.1381 -1.13807,2.7475 0,0 z m 1595,0 c 2.7475,-1.1381 -1.1381,2.7475 0,0 z m -585,1 c 2.7475,-1.1381 -1.1381,2.7475 0,0 z m 3,1 c 2.7475,-1.1381 -1.1381,2.7475 0,0 z m 28,0 c 2.7475,-1.1381 -1.1381,2.7475 0,0 z m 182,0 c 2.7475,-1.1381 -1.1381,2.7475 0,0 z m 826,0 c 2.7475,-1.1381 -1.1381,2.7475 0,0 z m 2,0 c 2.7475,-1.1381 -1.1381,2.7475 0,0 z m -1226,4 c 2.7475,-1.1381 -1.1381,2.7475 0,0 z m 768,0 c 2.7475,-1.1381 -1.1381,2.7475 0,0 z m -371,1 c 2.7475,-1.1381 -1.1381,2.7475 0,0 z m 2,0 c 2.7475,-1.1381 -1.1381,2.7475 0,0 z m 819,0 c 2.7475,-1.1381 -1.1381,2.7475 0,0 z m 2,0 c 2.7475,-1.1381 -1.1381,2.7475 0,0 z m -455,1 c 2.7475,-1.1381 -1.1381,2.7475 0,0 z m 455,1 c 2.7475,-1.1381 -1.1381,2.7475 0,0 z m -816,3 c 2.7475,-1.1381 -1.1381,2.7475 0,0 z m -761,2 c 2.74755,-1.1381 -1.13807,2.7475 0,0 z m 1114,0 c 2.7475,-1.1381 -1.1381,2.7475 0,0 z m 454,0 c 2.7475,-1.1381 -1.1381,2.7475 0,0 z m -1217,1 c 2.7475,-1.1381 -1.1381,2.7475 0,0 z m 1215,2 c 2.7475,-1.1381 -1.1381,2.7475 0,0 z m -2015,2 c 2.74755,-1.1381 -1.13807,2.7475 0,0 z m 971,0 c 2.7475,-1.1381 -1.1381,2.7475 0,0 z m 1042,1 c 2.7475,-1.1381 -1.1381,2.7475 0,0 z m -1549,1 c 2.74755,-1.1381 -1.13807,2.7475 0,0 z m 327,0 c 2.7475,-1.1381 -1.1381,2.7475 0,0 z m 762,0 c 2.7475,-1.1381 -1.1381,2.7475 0,0 z m -758,2 c 2.7475,-1.1381 -1.1381,2.7475 0,0 z m 174,0 c 2.7475,-1.1381 -1.1381,2.7475 0,0 z m 255,0 c 2.7475,-1.1381 -1.1381,2.7475 0,0 z m -763,1 c 2.74755,-1.1381 -1.13807,2.7475 0,0 z m 5,0 c 2.74755,-1.1381 -1.13807,2.7475 0,0 z m 584,0 c 2.7475,-1.1381 -1.1381,2.7475 0,0 z m 960,0 c 2.7475,-1.1381 -1.1381,2.7475 0,0 z m -1547,1 c 2.74755,-1.1381 -1.13807,2.7475 0,0 z m 5,0 c 2.74755,-1.1381 -1.13807,2.7475 0,0 z m 1083,0 c 2.7475,-1.1381 -1.1381,2.7475 0,0 z m -501,1 c 2.7475,-1.1381 -1.1381,2.7475 0,0 z m -5,2 c 2.7475,-1.1381 -1.1381,2.7475 0,0 z m 189,2 c 2.7475,-1.1381 -1.1381,2.7475 0,0 z m -763,1 c 2.74755,-1.1381 -1.13807,2.7475 0,0 z m 2,0 c 2.74755,-1.1381 -1.13807,2.7475 0,0 z m 758,0 c 2.7475,-1.1381 -1.1381,2.7475 0,0 z m -448,1 c 2.7475,-1.1381 -1.1381,2.7475 0,0 z m 450,0 c 2.7475,-1.1381 -1.1381,2.7475 0,0 z m -760,1 c 2.74755,-1.1381 -1.13807,2.7475 0,0 z m 2,1 c 2.74755,-1.1381 -1.13807,2.7475 0,0 z m -468,1 c 2.74755,-1.1381 -1.13807,2.7475 0,0 z m 485,3 c 2.74755,-1.1381 -1.13807,2.7475 0,0 z m 274,0 c 2.7475,-1.1381 -1.1381,2.7475 0,0 z m 760,0 c 2.7475,-1.1381 -1.1381,2.7475 0,0 z m -1509,2 c -2.74755,-1.1381 1.13807,2.7475 0,0 z m 1044,-1 c 2.7475,-1.1381 -1.1381,2.7475 0,0 z m 190,0 c 2.7475,-1.1381 -1.1381,2.7475 0,0 z m 751,0 c 2.7475,-1.1381 -1.1381,2.7475 0,0 z m -756,1 c 2.7475,-1.1381 -1.1381,2.7475 0,0 z m 1,2 c 2.7475,-1.1381 -1.1381,2.7475 0,0 z m 2,0 c 2.7475,-1.1381 -1.1381,2.7475 0,0 z m 752,0 c 2.7475,-1.1381 -1.1381,2.7475 0,0 z m -1513,1 c 2.74755,-1.1381 -1.13807,2.7475 0,0 z m 4,0 c 2.74755,-1.1381 -1.13807,2.7475 0,0 z m 571,2 c 2.7475,-1.1381 -1.1381,2.7475 0,0 z m -309,1 c 2.7475,-1.1381 -1.1381,2.7475 0,0 z m 6,0 c 2.7475,-1.1381 -1.1381,2.7475 0,0 z m 754,0 c 2.7475,-1.1381 -1.1381,2.7475 0,0 z m -1496,1 c 2.74755,-1.1381 -1.13807,2.7475 0,0 z m 733,0 c 2.7475,-1.1381 -1.1381,2.7475 0,0 z m 760,0 c 2.7475,-1.1381 -1.1381,2.7475 0,0 z m -1011,3 c 2.74755,-1.1381 -1.13807,2.7475 0,0 z m 447,0 c 2.7475,-1.1381 -1.1381,2.7475 0,0 z m 121,0 c 2.7475,-1.1381 -1.1381,2.7475 0,0 z m 4,4 c 2.7475,-1.1381 -1.1381,2.7475 0,0 z m -557,1 c 2.74755,-1.1381 -1.13807,2.7475 0,0 z m 756,0 c 2.7475,-1.1381 -1.1381,2.7475 0,0 z m 224,0 c 2.7475,-1.1381 -1.1381,2.7475 0,0 z m 3,0 c 2.7475,-1.1381 -1.1381,2.7475 0,0 z m 5,0 c 2.7475,-1.1381 -1.1381,2.7475 0,0 z m 490,1 c 2.7475,-1.1381 -1.1381,2.7475 0,0 z m -1258,1 c 2.7475,-1.1381 -1.1381,2.7475 0,0 z m 4,0 c 2.7475,-1.1381 -1.1381,2.7475 0,0 z m 334,0 c 2.7475,-1.1381 -1.1381,2.7475 0,0 z m 425,0 c 2.7475,-1.1381 -1.1381,2.7475 0,0 z m 495,1 c 2.7475,-1.1381 -1.1381,2.7475 0,0 z m 2,0 c 2.7475,-1.1381 -1.1381,2.7475 0,0 z m -1052,1 c 2.7475,-1.1381 -1.1381,2.7475 0,0 z m 1052,1 c 2.7475,-1.1381 -1.1381,2.7475 0,0 z m -1266,1 c 2.7475,-1.1381 -1.13807,2.7475 0,0 z m 554,0 c 2.7475,-1.1381 -1.1381,2.7475 0,0 z m 8,2 c 2.7475,-1.1381 -1.1381,2.7475 0,0 z m -760,1 c 2.74755,-1.1381 -1.13807,2.7475 0,0 z m 191,0 c 2.74755,-1.1381 -1.13807,2.7475 0,0 z m 576,0 c 2.7475,-1.1381 -1.1381,2.7475 0,0 z m 185,0 c 2.7475,-1.1381 -1.1381,2.7475 0,0 z m -1459,1 c 2.74755,-1.1381 -1.13807,2.7475 0,0 z m 510,0 c 2.74755,-1.1381 -1.13807,2.7475 0,0 z m 402,3 c 2.7475,-1.1381 -1.1381,2.7475 0,0 z m 522,1 c 2.7475,-1.1381 -1.1381,2.7475 0,0 z m -905,1 c 2.74755,-1.1381 -1.13807,2.7475 0,0 z m 901,0 c 2.7475,-1.1381 -1.1381,2.7475 0,0 z m -1423,1 c 2.74755,-1.1381 -1.13807,2.7475 0,0 z m 666,0 c 2.74755,-1.1381 -1.13807,2.7475 0,0 z m 381,0 c 2.7475,-1.1381 -1.1381,2.7475 0,0 z m 385,0 c 2.7475,-1.1381 -1.1381,2.7475 0,0 z m -145,1 c 2.7475,-1.1381 -1.1381,2.7475 0,0 z m 130,0 c 2.7475,-1.1381 -1.1381,2.7475 0,0 z m 13,0 c 2.7475,-1.1381 -1.1381,2.7475 0,0 z m -897,1 c 2.74755,-1.1381 -1.13807,2.7475 0,0 z m 837,4 c 2.7475,-1.1381 -1.1381,2.7475 0,0 z m 18,0 c 2.7475,-1.1381 -1.1381,2.7475 0,0 z m 6,0 c 2.7475,-1.1381 -1.1381,2.7475 0,0 z m -1394,1 c 2.74755,-1.1381 -1.13807,2.7475 0,0 z m 579,0 c 2.74755,-1.1381 -1.13807,2.7475 0,0 z m 32,0 c 2.74755,-1.1381 -1.13807,2.7475 0,0 z m 9,0 c 2.74755,-1.1381 -1.13807,2.7475 0,0 z m 3,0 c 2.74755,-1.1381 -1.13807,2.7475 0,0 z m 277,0 c 2.7475,-1.1381 -1.1381,2.7475 0,0 z m 414,0 c 2.7475,-1.1381 -1.1381,2.7475 0,0 z m 33,0 c 2.7475,-1.1381 -1.1381,2.7475 0,0 z m 32,0 c 2.7475,-1.1381 -1.1381,2.7475 0,0 z m 21,0 c 2.7475,-1.1381 -1.1381,2.7475 0,0 z m -838,1 c 2.74755,-1.1381 -1.13807,2.7475 0,0 z m 8,0 c 2.74755,-1.1381 -1.13807,2.7475 0,0 z m 20,0 c 2.74755,-1.1381 -1.13807,2.7475 0,0 z m 10,0 c 2.74755,-1.1381 -1.13807,2.7475 0,0 z m 40,0 c 2.74755,-1.1381 -1.13807,2.7475 0,0 z m 258,0 c 2.7475,-1.1381 -1.1381,2.7475 0,0 z m 420,0 c 2.7475,-1.1381 -1.1381,2.7475 0,0 z m 4,0 c 2.7475,-1.1381 -1.1381,2.7475 0,0 z m 2,0 c 2.7475,-1.1381 -1.1381,2.7475 0,0 z m 10,0 c 2.7475,-1.1381 -1.1381,2.7475 0,0 z m 60,0 c 2.7475,-1.1381 -1.1381,2.7475 0,0 z m -792,1 c 2.74755,-1.1381 -1.13807,2.7475 0,0 z m 10,0 v 3 z m 757,0 c 2.7475,-1.1381 -1.1381,2.7475 0,0 z m -804,2 c -2.74755,-1.1381 1.13807,2.7475 0,0 z m 14,-1 c 2.74755,-1.1381 -1.13807,2.7475 0,0 z m 12,0 c 2.74755,-1.1381 -1.13807,2.7475 0,0 z m 5,0 c 2.74755,-1.1381 -1.13807,2.7475 0,0 z m 3,0 c 2.74755,-1.1381 -1.13807,2.7475 0,0 z m 302,0 c 2.7475,-1.1381 -1.1381,2.7475 0,0 z m 439,0 c 2.7475,-1.1381 -1.1381,2.7475 0,0 z m 6,0 c 2.7475,-1.1381 -1.1381,2.7475 0,0 z m 39,0 c 2.7475,-1.1381 -1.1381,2.7475 0,0 z m -1383,1 c 2.74755,-1.1381 -1.13807,2.7475 0,0 z m 601,0 c 2.74755,-1.1381 -1.13807,2.7475 0,0 z m 4,0 c 2.74755,-1.1381 -1.13807,2.7475 0,0 z m 293,1 c 2.7475,-1.1381 -1.1381,2.7475 0,0 z m -7,5 c 2.7475,-1.1381 -1.1381,2.7475 0,0 z m -885,1 c 2.74755,-1.1381 -1.13807,2.7475 0,0 z m 1049,3 c 2.7475,-1.1381 -1.1381,2.7475 0,0 z m -1050,3 c 2.74755,-1.1381 -1.13807,2.7475 0,0 z m 5,2 c 2.74755,-1.1381 -1.13807,2.7475 0,0 z m -5,1 c 2.74755,-1.1381 -1.13807,2.7475 0,0 z m 1047,0 c 2.7475,-1.1381 -1.1381,2.7475 0,0 z m -155,2 c 2.7475,-1.1381 -1.1381,2.7475 0,0 z m 157,1 c 2.7475,-1.1381 -1.1381,2.7475 0,0 z m -157,3 c 2.7475,-1.1381 -1.1381,2.7475 0,0 z m 1039,0 c 2.7475,-1.1381 -1.1381,2.7475 0,0 z m -884,1 c 2.7475,-1.1381 -1.1381,2.7475 0,0 z m -1040,1 c 2.74755,-1.1381 -1.13807,2.7475 0,0 z m 884,0 c 2.7475,-1.1381 -1.1381,2.7475 0,0 z m -883,5 c 2.74755,-1.1381 -1.13807,2.7475 0,0 z m 5,2 c 2.74755,-1.1381 -1.13807,2.7475 0,0 z m -5,1 c 2.74755,-1.1381 -1.13807,2.7475 0,0 z m 1031,4 c 2.7475,-1.1381 -1.1381,2.7475 0,0 z m 885,0 c 2.7475,-1.1381 -1.1381,2.7475 0,0 z m -1908,2 c 2.74755,-1.1381 -1.13807,2.7475 0,0 z m 1024,6 c 2.7475,-1.1381 -1.1381,2.7475 0,0 z m -1,2 c 2.7475,-1.1381 -1.1381,2.7475 0,0 z m -138,4 c 2.7475,-1.1381 -1.1381,2.7475 0,0 z m 0,3 c 2.7475,-1.1381 -1.1381,2.7475 0,0 z m 1007,6 c 2.7475,-1.1381 -1.1381,2.7475 0,0 z m -1877,2 c 2.74755,-1.1381 -1.13807,2.7475 0,0 z m 2,0 c 2.74755,-1.1381 -1.13807,2.7475 0,0 z m 1876,0 c 2.7475,-1.1381 -1.1381,2.7475 0,0 z m -1875,2 c 2.74755,-1.1381 -1.13807,2.7475 0,0 z m 997,0 c 2.7475,-1.1381 -1.1381,2.7475 0,0 z m 3,0 c 2.7475,-1.1381 -1.1381,2.7475 0,0 z m 2,0 c 2.7475,-1.1381 -1.1381,2.7475 0,0 z m 870,2 c 2.7475,-1.1381 -1.1381,2.7475 0,0 z m -1000,2 c 2.7475,-1.1381 -1.1381,2.7475 0,0 z m -867,2 c 2.74755,-1.1381 -1.13807,2.7475 0,0 z m 869,0 c 2.7475,-1.1381 -1.1381,2.7475 0,0 z m 123,3 c 2.7475,-1.1381 -1.1381,2.7475 0,0 z m -990,1 c 2.74755,-1.1381 -1.13807,2.7475 0,0 z m 1856,1 c 2.7475,-1.1381 -1.1381,2.7475 0,0 z m -984,10 c 2.7475,-1.1381 -1.1381,2.7475 0,0 z m 1,3 c 2.7475,-1.1381 -1.1381,2.7475 0,0 z m 967,2 c 2.7475,-1.1381 -1.1381,2.7475 0,0 z m -964,2 c 2.7475,-1.1381 -1.1381,2.7475 0,0 z m -859,4 c 2.74755,-1.1381 -1.13807,2.7475 0,0 z m 959,6 c 2.7475,-1.1381 -1.1381,2.7475 0,0 z m -951,2 c 2.74755,-1.1381 -1.13807,2.7475 0,0 z m 1803,0 c 2.7475,-1.1381 -1.1381,2.7475 0,0 z m -1791,9 c 2.74755,-1.1381 -1.13807,2.7475 0,0 z m 1780,2 c 2.7475,-1.1381 -1.1381,2.7475 0,0 z m -848,3 c 2.7475,-1.1381 -1.1381,2.7475 0,0 z m 842,4 c 2.7475,-1.1381 -1.1381,2.7475 0,0 z m -919,6 c 2.7475,-1.1381 -1.1381,2.7475 0,0 z m 912,0 c 2.7475,-1.1381 -1.1381,2.7475 0,0 z m -1755,6 c 2.74755,-1.1381 -1.13807,2.7475 0,0 z m 2,1 c 2.67101,6.786 -3.24997,0.6957 0,0 z m 907,1 c 2.7475,-1.1381 -1.1381,2.7475 0,0 z m 847,0 c 2.7475,-1.1381 -1.1381,2.7475 0,0 z m -905,1 c 2.7475,-1.1381 -1.1381,2.7475 0,0 z m 912,4 c 2.7475,-1.1381 -1.1381,2.7475 0,0 z m -855,1 c 2.7475,-1.1381 -1.1381,2.7475 0,0 z m -56,1 c 2.7475,-1.1381 -1.1381,2.7475 0,0 z m 51,4 c 2.7475,-1.1381 -1.1381,2.7475 0,0 z m 859,1 c 2.7475,-1.1381 -1.1381,2.7475 0,0 z m -1771,1 c 2.74755,-1.1381 -1.13807,2.7475 0,0 z m 913,0 c 2.7475,-1.1381 -1.1381,2.7475 0,0 z m 860,0 c 2.7475,-1.1381 -1.1381,2.7475 0,0 z m -1770,2 c 2.74755,-1.1381 -1.13807,2.7475 0,0 z m 0,2 c 2.74755,-1.1381 -1.13807,2.7475 0,0 z m 864,0 c 2.7475,-1.1381 -1.1381,2.7475 0,0 z m -866,1 c 2.74755,-1.1381 -1.13807,2.7475 0,0 z m 901,3 c 2.7475,-1.1381 -1.1381,2.7475 0,0 z m 5,0 c 2.7475,-1.1381 -1.1381,2.7475 0,0 z m -2,1 c 2.7475,-1.1381 -1.1381,2.7475 0,0 z m 874,2 c 2.7475,-1.1381 -1.1381,2.7475 0,0 z m -877,7 c 2.7475,-1.1381 -1.1381,2.7475 0,0 z m -25,1 c 2.7475,-1.1381 -1.1381,2.7475 0,0 z m 909,4 c 2.7475,-1.1381 -1.1381,2.7475 0,0 z m -903,1 c 2.7475,-1.1381 -1.1381,2.7475 0,0 z m -3,2 c 2.7475,-1.1381 -1.1381,2.7475 0,0 z m 14,1 c 2.7475,-1.1381 -1.1381,2.7475 0,0 z m 2,1 c 2.7475,-1.1381 -1.1381,2.7475 0,0 z m -12,5 c 2.7475,-1.1381 -1.1381,2.7475 0,0 z m 905,0 c 2.7475,-1.1381 -1.1381,2.7475 0,0 z m -900,1 c 2.7475,-1.1381 -1.1381,2.7475 0,0 z m 905,5 c 2.7475,-1.1381 -1.1381,2.7475 0,0 z m -1812,3 c 2.74755,-1.1381 -1.13807,2.7475 0,0 z m 1814,1 c 2.7475,-1.1381 -1.1381,2.7475 0,0 z m -1818,17 c 2.74755,-1.1381 -1.13807,2.7475 0,0 z m -3,3 c 2.74755,-1.1381 -1.13807,2.7475 0,0 z m 1828,0 c 2.7475,-1.1381 -1.1381,2.7475 0,0 z m -2,1 c 2.7475,-1.1381 -1.1381,2.7475 0,0 z m 2,11 c 2.7475,-1.1381 -1.1381,2.7475 0,0 z m -1837,4 c 2.74755,-1.1381 -1.13807,2.7475 0,0 z m 3,0 c 2.74755,-1.1381 -1.13807,2.7475 0,0 z m 1836,2 c 2.7475,-1.1381 -1.1381,2.7475 0,0 z m 0,2 c 2.7475,-1.1381 -1.1381,2.7475 0,0 z m -1838,3 c 2.74755,-1.1381 -1.13807,2.7475 0,0 z m 1,2 c 2.74755,-1.1381 -1.13807,2.7475 0,0 z m 1843,6 c 2.7475,-1.1381 -1.1381,2.7475 0,0 z m -1843,2 c 2.74755,-1.1381 -1.13807,2.7475 0,0 z m 1842,0 c 2.7475,-1.1381 -1.1381,2.7475 0,0 z m -1844,1 c 2.74755,-1.1381 -1.13807,2.7475 0,0 z m 1845,4 c 2.7475,-1.1381 -1.1381,2.7475 0,0 z m -1852,10 c 2.74755,-1.1381 -1.13807,2.7475 0,0 z m 5,1 c 2.74755,-1.1381 -1.13807,2.7475 0,0 z m -4,1 c 2.74755,-1.1381 -1.13807,2.7475 0,0 z m 1853,2 c 2.7475,-1.1381 -1.1381,2.7475 0,0 z m -1850,5 c 2.74755,-1.1381 -1.13807,2.7475 0,0 z m -4,4 c 2.74755,-1.1381 -1.13807,2.7475 0,0 z m -1,5 c 2.74755,-1.1381 -1.13807,2.7475 0,0 z m 1862,2 c 2.7475,-1.1381 -1.1381,2.7475 0,0 z m -1,7 c 2.7475,-1.1381 -1.1381,2.7475 0,0 z m -1866,14 c 2.74755,-1.1381 -1.13807,2.7475 0,0 z m -2,1 c 2.74755,-1.1381 -1.13807,2.7475 0,0 z m 2,1 c 2.74755,-1.1381 -1.13807,2.7475 0,0 z m 2,2 c 2.74755,-1.1381 -1.13807,2.7475 0,0 z m -4,13 c 2.74755,-1.1381 -1.13807,2.7475 0,0 z m 1874,1 c 2.7475,-1.1381 -1.1381,2.7475 0,0 z m 3,0 c 2.7475,-1.1381 -1.1381,2.7475 0,0 z m -1,2 c 2.7475,-1.1381 -1.1381,2.7475 0,0 z m -1,14 c 2.7475,-1.1381 -1.1381,2.7475 0,0 z m -1881,23 c 2.74755,-1.1381 -1.13807,2.7475 0,0 z m 0,3 c 2.74755,-1.1381 -1.13807,2.7475 0,0 z m -2,1 c 2.74755,-1.1381 -1.13807,2.7475 0,0 z m 2,3 c 2.74755,-1.1381 -1.13807,2.7475 0,0 z m -1,2 c 2.74755,-1.1381 -1.13807,2.7475 0,0 z m -1,2 c 2.74755,-1.1381 -1.13807,2.7475 0,0 z m 1891,0 c 2.7475,-1.1381 -1.1381,2.7475 0,0 z m -1896,13 c 2.74755,-1.1381 -1.13807,2.7475 0,0 z m -2,2 c 2.74755,-1.1381 -1.13807,2.7475 0,0 z m 2,3 c 2.74755,-1.1381 -1.13807,2.7475 0,0 z m 1906,10 c 2.7475,-1.1381 -1.1381,2.7475 0,0 z m -1909,1 c 2.74755,-1.1381 -1.13807,2.7475 0,0 z m 0,2 c 2.74755,-1.1381 -1.13807,2.7475 0,0 z m 1910,1 c 2.7475,-1.1381 -1.1381,2.7475 0,0 z m -2,7 c 2.7475,-1.1381 -1.1381,2.7475 0,0 z m 2,6 c 2.7475,-1.1381 -1.1381,2.7475 0,0 z m -1918,1 c 2.74755,-1.1381 -1.13807,2.7475 0,0 z m 4,0 v 3 z m -2,1 c 2.74755,-1.1381 -1.13807,2.7475 0,0 z m 1916,0 c 2.7475,-1.1381 -1.1381,2.7475 0,0 z m -1918,6 c 2.74755,-1.1381 -1.13807,2.7475 0,0 z m 0,12 c 2.74755,-1.1381 -1.13807,2.7475 0,0 z m 1922,0 c 2.7475,-1.1381 -1.1381,2.7475 0,0 z m 3,15 c 2.7475,-1.1381 -1.1381,2.7475 0,0 z m -1934,6 c 2.74755,-1.1381 -1.13807,2.7475 0,0 z m 2,5 3,1 z m -2,2 c 2.74755,-1.1381 -1.13807,2.7475 0,0 z m 1941,13 c 2.7475,-1.1381 -1.1381,2.7475 0,0 z m -1941,3 c 2.74755,-1.1381 -1.13807,2.7475 0,0 z m 1939,0 c 2.7475,-1.1381 -1.1381,2.7475 0,0 z m 1,4 c 2.7475,-1.1381 -1.1381,2.7475 0,0 z m 3,20 c 2.7475,-1.1381 -1.1381,2.7475 0,0 z m -1,10 c 2.7475,-1.1381 -1.1381,2.7475 0,0 z m 0,32 c 2.7475,-1.1381 -1.1381,2.7475 0,0 z m -1,9 c 2.7475,-1.1381 -1.1381,2.7475 0,0 z m -1941,6 c 2.74755,-1.1381 -1.13807,2.7475 0,0 z m 1940,1 c 2.7475,-1.1381 -1.1381,2.7475 0,0 z m 3,17 c 2.7475,-1.1381 -1.1381,2.7475 0,0 z m -1950,11 c 2.74755,-1.1381 -1.13807,2.7475 0,0 z m 2,4 c 2.74755,-1.1381 -1.13807,2.7475 0,0 z m -1,2 c 2.74755,-1.1381 -1.13807,2.7475 0,0 z m -1,2 c 2.74755,-1.1381 -1.13807,2.7475 0,0 z m 1955,10 c 2.7475,-1.1381 -1.1381,2.7475 0,0 z m 2,4 c 2.7475,-1.1381 -1.1381,2.7475 0,0 z m -1957,3 c 2.74755,-1.1381 -1.13807,2.7475 0,0 z m 1,2 c 2.74755,-1.1381 -1.13807,2.7475 0,0 z m 1956,1 c 2.7475,-1.1381 -1.1381,2.7475 0,0 z m -2,1 c 2.7475,-1.1381 -1.1381,2.7475 0,0 z m 2,11 c 2.7475,-1.1381 -1.1381,2.7475 0,0 z m -1958,1 c 2.74755,-1.1381 -1.13807,2.7475 0,0 z m 1958,4 c 2.7475,-1.1381 -1.1381,2.7475 0,0 z m -1,2 c 2.7475,-1.1381 -1.1381,2.7475 0,0 z m 1,6 c 2.7475,-1.1381 -1.1381,2.7475 0,0 z m 1,8 c 2.7475,-1.1381 -1.1381,2.7475 0,0 z m 0,12 c 2.7475,-1.1381 -1.1381,2.7475 0,0 z m -1962,9 c 2.74755,-1.1381 -1.13807,2.7475 0,0 z m -2,6 c 2.74755,-1.1381 -1.13807,2.7475 0,0 z m 1,2 c 2.74755,-1.1381 -1.13807,2.7475 0,0 z m 1,4 c 2.74755,-1.1381 -1.13807,2.7475 0,0 z m -1,20 c 2.74755,-1.1381 -1.13807,2.7475 0,0 z m -1,2 c 2.74755,-1.1381 -1.13807,2.7475 0,0 z m 0,4 c 2.74755,-1.1381 -1.13807,2.7475 0,0 z m -1,6 c 2.74755,-1.1381 -1.13807,2.7475 0,0 z m 1965,10 c 2.7475,-1.1381 -1.1381,2.7475 0,0 z m -1,9 c 2.7475,-1.1381 -1.1381,2.7475 0,0 z m -1,16 c 2.7475,-1.1381 -1.1381,2.7475 0,0 z m 0,12 c 2.7475,-1.1381 -1.1381,2.7475 0,0 z m -1956,1 c 2.74755,-1.1381 -1.13807,2.7475 0,0 z m 1952,0 c 2.7475,-1.1381 -1.1381,2.7475 0,0 z m 5,1 c 2.7475,-1.1381 -1.1381,2.7475 0,0 z m -1957,1 c 2.74755,-1.1381 -1.13807,2.7475 0,0 z m -1,7 c 2.74755,-1.1381 -1.13807,2.7475 0,0 z m 3,0 c 2.74755,-1.1381 -1.13807,2.7475 0,0 z m 5,3 c 2.74755,-1.1381 -1.13807,2.7475 0,0 z m 27,0 c 2.74755,-1.1381 -1.13807,2.7475 0,0 z m 1886,0 c 2.7475,-1.1381 -1.1381,2.7475 0,0 z m 26,5 c 2.7475,-1.1381 -1.1381,2.7475 0,0 z m -23,1 c 2.7475,-1.1381 -1.1381,2.7475 0,0 z m -2,3 c 2.7475,-1.1381 -1.1381,2.7475 0,0 z m -1909,1 c 2.74755,-1.1381 -1.13807,2.7475 0,0 z m 1911,1 c 2.7475,-1.1381 -1.1381,2.7475 0,0 z m -1914,1 c 2.74755,-1.1381 -1.13807,2.7475 0,0 z m 1932,1 c 2.7475,-1.1381 -1.1381,2.7475 0,0 z m -24,42 c 2.7475,-1.1381 -1.1381,2.7475 0,0 z m 0,17 c 2.7475,-1.1381 -1.1381,2.7475 0,0 z m 1,4 c 2.7475,-1.1381 -1.1381,2.7475 0,0 z m -2,6 c 2.7475,-1.1381 -1.1381,2.7475 0,0 z m 0,4 c 2.7475,-1.1381 -1.1381,2.7475 0,0 z m 1,4 c 2.7475,-1.1381 -1.1381,2.7475 0,0 z m -2,1 c 2.7475,-1.1381 -1.1381,2.7475 0,0 z m 2,1 c 2.7475,-1.1381 -1.1381,2.7475 0,0 z m -2,12 c 2.7475,-1.1381 -1.1381,2.7475 0,0 z m -1876,1 c 2.74755,-1.1381 -1.13807,2.7475 0,0 z m 1875,1 3,3 z m 2,8 c 2.7475,-1.1381 -1.1381,2.7475 0,0 z m -1875,1 c 2.74755,-1.1381 -1.13807,2.7475 0,0 z m 1871,1 c 2.7475,-1.1381 -1.1381,2.7475 0,0 z m -1872,3 c 2.74755,-1.1381 -1.13807,2.7475 0,0 z m 0,14 c 2.74755,-1.1381 -1.13807,2.7475 0,0 z m 1870,6 c 2.7475,-1.1381 -1.1381,2.7475 0,0 z m -2,11 c 2.7475,-1.1381 -1.1381,2.7475 0,0 z m -1,6 c 2.7475,-1.1381 -1.1381,2.7475 0,0 z m -1855,11 c 2.67101,6.786 -3.24997,0.6957 0,0 z m -2,3 c 2.74755,-1.1381 -1.13807,2.7475 0,0 z m 1852,0 c 2.7475,-1.1381 -1.1381,2.7475 0,0 z m -1,9 c 2.7475,-1.1381 -1.1381,2.7475 0,0 z m 0,4 c 2.7475,-1.1381 -1.1381,2.7475 0,0 z m 1,2 c 2.7475,-1.1381 -1.1381,2.7475 0,0 z m 0,2 c 2.7475,-1.1381 -1.1381,2.7475 0,0 z m -1843,5 c 2.74755,-1.1381 -1.13807,2.7475 0,0 z m 4,10 c 2.74755,-1.1381 -1.13807,2.7475 0,0 z m 1829,1 c 2.7475,-1.1381 -1.1381,2.7475 0,0 z m -1827,6 c 2.74755,-1.1381 -1.13807,2.7475 0,0 z m 1825,0 c 2.7475,-1.1381 -1.1381,2.7475 0,0 z m -1827,1 c 2.74755,-1.1381 -1.13807,2.7475 0,0 z m 1831,1 c 2.7475,-1.1381 -1.1381,2.7475 0,0 z m -9,6 c 2.7475,-1.1381 -1.1381,2.7475 0,0 z m -1785,6 c 2.74755,-1.1381 -1.13807,2.7475 0,0 z m -26,1 c 2.74755,-1.1381 -1.13807,2.7475 0,0 z m 31,0 c 2.74755,-1.1381 -1.13807,2.7475 0,0 z m 1748,0 c 2.7475,-1.1381 -1.1381,2.7475 0,0 z m -1752,1 c 2.74755,-1.1381 -1.13807,2.7475 0,0 z m -1,3 c 2.74755,-1.1381 -1.13807,2.7475 0,0 z m -1,3 c 2.74755,-1.1381 -1.13807,2.7475 0,0 z m 1756,2 c 2.7475,-1.1381 -1.1381,2.7475 0,0 z m 2,0 c 2.7475,-1.1381 -1.1381,2.7475 0,0 z m 21,1 c 2.7475,-1.1381 -1.1381,2.7475 0,0 z m -1795,1 c 2.74755,-1.1381 -1.13807,2.7475 0,0 z m 15,0 c 2.74755,-1.1381 -1.13807,2.7475 0,0 z m 1760,0 c 2.7475,-1.1381 -1.1381,2.7475 0,0 z m 13,0 c 2.7475,-1.1381 -1.1381,2.7475 0,0 z m -5,1 c 2.7475,-1.1381 -1.1381,2.7475 0,0 z m 2,0 c 2.7475,-1.1381 -1.1381,2.7475 0,0 z m -1775,1 c 2.74755,-1.1381 -1.13807,2.7475 0,0 z m 1763,0 c 2.7475,-1.1381 -1.1381,2.7475 0,0 z m -1751,1 c 2.74755,-1.1381 -1.13807,2.7475 0,0 z m 5,5 c 2.74755,-1.1381 -1.13807,2.7475 0,0 z m 1,4 c 2.74755,-1.1381 -1.13807,2.7475 0,0 z m 1734,1 c 2.7475,-1.1381 -1.1381,2.7475 0,0 z m -1,2 c 2.7475,-1.1381 -1.1381,2.7475 0,0 z m -1731,8 c 2.74755,-1.1381 -1.13807,2.7475 0,0 z m 1730,2 c 2.7475,-1.1381 -1.1381,2.7475 0,0 z m -1732,8 c 2.74755,-1.1381 -1.13807,2.7475 0,0 z m 1726,6 c 2.7475,-1.1381 -1.1381,2.7475 0,0 z m -2,6 c 2.7475,-1.1381 -1.1381,2.7475 0,0 z m 0,3 c 2.7475,-1.1381 -1.1381,2.7475 0,0 z m -1714,1 c 2.74755,-1.1381 -1.13807,2.7475 0,0 z m 1711,0 c 2.7475,-1.1381 -1.1381,2.7475 0,0 z m 3,1 c 2.7475,-1.1381 -1.1381,2.7475 0,0 z m -1716,6 c 2.74755,-1.1381 -1.13807,2.7475 0,0 z m 2,1 c 2.74755,-1.1381 -1.13807,2.7475 0,0 z m 1706,8 c 2.7475,-1.1381 -1.1381,2.7475 0,0 z m -2,5 c 2.7475,-1.1381 -1.1381,2.7475 0,0 z m 2,1 3,3 z m -1695,7 c 2.74755,-1.1381 -1.13807,2.7475 0,0 z m -2,3 c 2.74755,-1.1381 -1.13807,2.7475 0,0 z m 1691,3 c 2.7475,-1.1381 -1.1381,2.7475 0,0 z m -1686,3 c 2.74755,-1.1381 -1.13807,2.7475 0,0 z m 1676,14 c 2.7475,-1.1381 -1.1381,2.7475 0,0 z m -1666,5 c 2.74755,-1.1381 -1.13807,2.7475 0,0 z m 1667,0 c 2.7475,-1.1381 -1.1381,2.7475 0,0 z m -1660,12 c 2.74755,-1.1381 -1.13807,2.7475 0,0 z m 1651,4 c 2.7475,-1.1381 -1.1381,2.7475 0,0 z m -1650,4 c 2.74755,-1.1381 -1.13807,2.7475 0,0 z m 3,1 c 2.74755,-1.1381 -1.13807,2.7475 0,0 z m 2,1 c 2.74755,-1.1381 -1.13807,2.7475 0,0 z m 3,11 c 2.74755,-1.1381 -1.13807,2.7475 0,0 z m 5,5 c 2.74755,-1.1381 -1.13807,2.7475 0,0 z m 1622,1 c 2.7475,-1.1381 -1.1381,2.7475 0,0 z m -3,4 c 2.7475,-1.1381 -1.1381,2.7475 0,0 z m -1614,2 c 2.74755,-1.1381 -1.13807,2.7475 0,0 z m 1609,5 c 2.7475,-1.1381 -1.1381,2.7475 0,0 z m -1604,3 c 2.74755,-1.1381 -1.13807,2.7475 0,0 z m 1604,2 c 2.7475,-1.1381 -1.1381,2.7475 0,0 z m -1604,1 c 2.74755,-1.1381 -1.13807,2.7475 0,0 z m 2,0 c 2.74755,-1.1381 -1.13807,2.7475 0,0 z m 0,5 c 2.74755,-1.1381 -1.13807,2.7475 0,0 z m 1594,0 c 2.7475,-1.1381 -1.1381,2.7475 0,0 z m -1580,16 c 2.74755,-1.1381 -1.13807,2.7475 0,0 z m 2,2 c 2.74755,-1.1381 -1.13807,2.7475 0,0 z m 1571,0 c 2.7475,-1.1381 -1.1381,2.7475 0,0 z m -8,3 c 2.7475,-1.1381 -1.1381,2.7475 0,0 z m -1,2 c -2.095,8.2412 -3.2787,-0.496 0,0 z m -10,8 c 2.7475,-1.1381 -1.1381,2.7475 0,0 z m -1537,1 c 2.74755,-1.1381 -1.13807,2.7475 0,0 z m 5,2 c 2.74755,-1.1381 -1.13807,2.7475 0,0 z m 1491,2 c 2.7475,-1.1381 -1.1381,2.7475 0,0 z m -1480,3 c 2.74755,-1.1381 -1.13807,2.7475 0,0 z m 1475,0 c 2.7475,-1.1381 -1.1381,2.7475 0,0 z m -1444,1 c 2.74755,-1.1381 -1.13807,2.7475 0,0 z m 1446,0 c 2.7475,-1.1381 -1.1381,2.7475 0,0 z m -1475,1 c 2.74755,-1.1381 -1.13807,2.7475 0,0 z m 1481,0 c 2.7475,-1.1381 -1.1381,2.7475 0,0 z m 21,0 c 2.7475,-1.1381 -1.1381,2.7475 0,0 z m 2,0 c 2.7475,-1.1381 -1.1381,2.7475 0,0 z m -1489,1 c 2.74755,-1.1381 -1.13807,2.7475 0,0 z m 1453,0 c 2.7475,-1.1381 -1.1381,2.7475 0,0 z m 6,0 c 2.7475,-1.1381 -1.1381,2.7475 0,0 z m -1467,1 c 2.74755,-1.1381 -1.13807,2.7475 0,0 z m 1484,0 c 2.7475,-1.1381 -1.1381,2.7475 0,0 z m -29,4 c -2.7475,-1.1381 1.1381,2.7475 0,0 z m 2,3 c 2.7475,-1.1381 -1.1381,2.7475 0,0 z m -1418,5 c 2.74755,-1.1381 -1.13807,2.7475 0,0 z m 1406,2 c 2.7475,-1.1381 -1.1381,2.7475 0,0 z m 5,0 c 2.7475,-1.1381 -1.1381,2.7475 0,0 z m 2,0 c 2.7475,-1.1381 -1.1381,2.7475 0,0 z m -1414,1 c 2.74755,-1.1381 -1.13807,2.7475 0,0 z m 1404,2 c 2.7475,-1.1381 -1.1381,2.7475 0,0 z m 0,2 c 2.7475,-1.1381 -1.1381,2.7475 0,0 z m -1394,1 c 2.74755,-1.1381 -1.13807,2.7475 0,0 z m 1392,1 c 2.7475,-1.1381 -1.1381,2.7475 0,0 z m 3,0 c 2.7475,-1.1381 -1.1381,2.7475 0,0 z m -3,2 c 2.7475,-1.1381 -1.1381,2.7475 0,0 z m -8,4 c 2.7475,-1.1381 -1.1381,2.7475 0,0 z m 2,0 c 2.7475,-1.1381 -1.1381,2.7475 0,0 z m 0,2 c 2.7475,-1.1381 -1.1381,2.7475 0,0 z m -1379,2 c 2.74755,-1.1381 -1.13807,2.7475 0,0 z m 1362,10 c 2.7475,-1.1381 -1.1381,2.7475 0,0 z m 1,4 c 8.2426,-3.4142 -3.4142,8.2426 0,0 z m -1345,3 c 2.74755,-1.1381 -1.13807,2.7475 0,0 z m 1337,1 c 2.7475,-1.1381 -1.1381,2.7475 0,0 z m -1330,1 c 2.74755,-1.1381 -1.13807,2.7475 0,0 z m 1325,4 c 2.7475,-1.1381 -1.1381,2.7475 0,0 z m -1319,5 c 2.74755,-1.1381 -1.13807,2.7475 0,0 z m 5,1 c -2.09496,8.2412 -3.27866,-0.496 0,0 z m 6,5 c 2.74755,-1.1381 -1.13807,2.7475 0,0 z m 1291,1 c 2.7475,-1.1381 -1.1381,2.7475 0,0 z m -1293,2 c 2.74755,-1.1381 -1.13807,2.7475 0,0 z m 5,0 c 2.74755,-1.1381 -1.13807,2.7475 0,0 z m -3,2 c 2.74755,-1.1381 -1.13807,2.7475 0,0 z m 1279,6 c 2.7475,-1.1381 -1.1381,2.7475 0,0 z m 3,1 c 2.7475,-1.1381 -1.1381,2.7475 0,0 z m -1269,1 c 2.74755,-1.1381 -1.13807,2.7475 0,0 z m 1262,6 c 2.7475,-1.1381 -1.1381,2.7475 0,0 z m -1252,2 c 2.74755,-1.1381 -1.13807,2.7475 0,0 z m 1248,1 c 2.7475,-1.1381 -1.1381,2.7475 0,0 z m -13,8 c 2.7475,-1.1381 -1.1381,2.7475 0,0 z m -1222,7 c 2.74755,-1.1381 -1.13807,2.7475 0,0 z m 4,1 c 2.74755,-1.1381 -1.13807,2.7475 0,0 z m 6,2 c 2.74755,-1.1381 -1.13807,2.7475 0,0 z m 5,5 c 2.74755,-1.1381 -1.13807,2.7475 0,0 z m -22,11 c 2.74755,-1.1381 -1.13807,2.7475 0,0 z m 26,0 c 2.74755,-1.1381 -1.13807,2.7475 0,0 z m 1182,0 c 2.7475,-1.1381 -1.1381,2.7475 0,0 z m -1217,1 c 2.74755,-1.1381 -1.13807,2.7475 0,0 z m 2,1 c 2.74755,-1.1381 -1.13807,2.7475 0,0 z m 1227,0 c 2.7475,-1.1381 -1.1381,2.7475 0,0 z m 16,1 c 2.7475,-1.1381 -1.1381,2.7475 0,0 z m -1244,3 c 2.74755,-1.1381 -1.13807,2.7475 0,0 z m -18,4 c 2.74755,-1.1381 -1.13807,2.7475 0,0 z m 2,0 c 2.74755,-1.1381 -1.13807,2.7475 0,0 z m 1283,1 c 2.7475,-1.1381 -1.1381,2.7475 0,0 z m -1283,1 c 2.74755,-1.1381 -1.13807,2.7475 0,0 z m -7,3 c 2.74755,-1.1381 -1.13807,2.7475 0,0 z m 1303,3 c 2.7475,-1.1381 -1.1381,2.7475 0,0 z m 5,2 c 2.7475,-1.1381 -1.1381,2.7475 0,0 z m -1323,5 c 2.74755,-1.1381 -1.13807,2.7475 0,0 z m 1329,0 c 2.7475,-1.1381 -1.1381,2.7475 0,0 z m -1337,2 c 2.74755,-1.1381 -1.13807,2.7475 0,0 z m -3,6 c 2.74755,-1.1381 -1.13807,2.7475 0,0 z m 0,2 c 2.74755,-1.1381 -1.13807,2.7475 0,0 z m -4,5 c 2.74755,-1.1381 -1.13807,2.7475 0,0 z m 1362,2 c 2.7475,-1.1381 -1.1381,2.7475 0,0 z m 7,7 c 2.7475,-1.1381 -1.1381,2.7475 0,0 z m -1379,1 c 2.74755,-1.1381 -1.13807,2.7475 0,0 z m 2,0 c 2.74755,-1.1381 -1.13807,2.7475 0,0 z m -8,6 c 2.74755,-1.1381 -1.13807,2.7475 0,0 z m 1385,0 c 2.7475,-1.1381 -1.1381,2.7475 0,0 z m 9,1 c 2.7475,-1.1381 -1.1381,2.7475 0,0 z m -1395,1 c 2.74755,-1.1381 -1.13807,2.7475 0,0 z m 2,0 c 2.74755,-1.1381 -1.13807,2.7475 0,0 z m -10,8 c 2.74755,-1.1381 -1.13807,2.7475 0,0 z m 2,2 c 2.74755,-1.1381 -1.13807,2.7475 0,0 z m -1,2 c 2.74755,-1.1381 -1.13807,2.7475 0,0 z m -12,2 c 2.74755,-1.1381 -1.13807,2.7475 0,0 z m 1420,1 c 2.7475,-1.1381 -1.1381,2.7475 0,0 z m -1415,1 c 2.74755,-1.1381 -1.13807,2.7475 0,0 z m 0,2 c 2.74755,-1.1381 -1.13807,2.7475 0,0 z m -8,4 c 2.74755,-1.1381 -1.13807,2.7475 0,0 z m 1432,3 c 2.7475,-1.1381 -1.1381,2.7475 0,0 z m -1437,2 c 2.74755,-1.1381 -1.13807,2.7475 0,0 z m -3,3 c 2.74755,-1.1381 -1.13807,2.7475 0,0 z m -5,5 c 2.74755,-1.1381 -1.13807,2.7475 0,0 z m 1455,0 c 2.7475,-1.1381 -1.1381,2.7475 0,0 z m 5,5 c 2.7475,-1.1381 -1.1381,2.7475 0,0 z m -1465,1 c 2.74755,-1.1381 -1.13807,2.7475 0,0 z m -10,13 c 2.74755,-1.1381 -1.13807,2.7475 0,0 z m 2,0 c 2.74755,-1.1381 -1.13807,2.7475 0,0 z m -6,9 c 2.74755,-1.1381 -1.13807,2.7475 0,0 z m -3,4 c 2.74755,-1.1381 -1.13807,2.7475 0,0 z m 1508,3 c 2.7475,-1.1381 -1.1381,2.7475 0,0 z m -1,4 c 2.7475,-1.1381 -1.1381,2.7475 0,0 z m -1517,17 c 2.74755,-1.1381 -1.13807,2.7475 0,0 z m 625,5 c 2.7475,-1.1381 -1.1381,2.7475 0,0 z m -6,1 c 2.7475,-1.1381 -1.1381,2.7475 0,0 z m 14,0 c 2.7475,-1.1381 -1.1381,2.7475 0,0 z m 4,0 c 2.7475,-1.1381 -1.1381,2.7475 0,0 z m 262,0 c 2.7475,-1.1381 -1.1381,2.7475 0,0 z m 11,0 c 2.7475,-1.1381 -1.1381,2.7475 0,0 z m -907,1 c 2.74755,-1.1381 -1.13807,2.7475 0,0 z m 627,0 c 2.7475,-1.1381 -1.1381,2.7475 0,0 z m 13,0 c 2.7475,-1.1381 -1.1381,2.7475 0,0 z m -22,1 c 2.7475,-1.1381 -1.1381,2.7475 0,0 z m 236,0 c 2.7475,-1.1381 -1.1381,2.7475 0,0 z m 2,0 c 2.7475,-1.1381 -1.1381,2.7475 0,0 z m 16,0 c 2.7475,-1.1381 -1.1381,2.7475 0,0 z m 23,0 c 2.7475,-1.1381 -1.1381,2.7475 0,0 z m 12,0 c 2.7475,-1.1381 -1.1381,2.7475 0,0 z m -291,1 c 2.7475,-1.1381 -1.1381,2.7475 0,0 z m 10,0 c 2.7475,-1.1381 -1.1381,2.7475 0,0 z m 5,0 c 2.7475,-1.1381 -1.1381,2.7475 0,0 z m 21,0 c 2.7475,-1.1381 -1.1381,2.7475 0,0 z m 37,0 c 2.7475,-1.1381 -1.1381,2.7475 0,0 z m 2,0 c 2.7475,-1.1381 -1.1381,2.7475 0,0 z m 171,0 c 2.7475,-1.1381 -1.1381,2.7475 0,0 z m 8,0 c 2.7475,-1.1381 -1.1381,2.7475 0,0 z m 8,0 c 2.7475,-1.1381 -1.1381,2.7475 0,0 z m 19,0 c 2.7475,-1.1381 -1.1381,2.7475 0,0 z m -227,1 c 2.7475,-1.1381 -1.1381,2.7475 0,0 z m 160,0 c 2.7475,-1.1381 -1.1381,2.7475 0,0 z m 69,0 c 2.7475,-1.1381 -1.1381,2.7475 0,0 z m 36,0 c 2.7475,-1.1381 -1.1381,2.7475 0,0 z m -357,1 c 2.7475,-1.1381 -1.1381,2.7475 0,0 z m -581,3 c 2.74755,-1.1381 -1.13807,2.7475 0,0 z m 573,1 c 2.7475,-1.1381 -1.1381,2.7475 0,0 z m 3,1 c 2.7475,-1.1381 -1.1381,2.7475 0,0 z m 370,0 c 2.7475,-1.1381 -1.1381,2.7475 0,0 z m 17,1 c 2.7475,-1.1381 -1.1381,2.7475 0,0 z m 7,2 c 2.7475,-1.1381 -1.1381,2.7475 0,0 z m -419,4 c 2.7475,-1.1381 -1.1381,2.7475 0,0 z m 424,1 c 2.7475,-1.1381 -1.1381,2.7475 0,0 z m 2,0 c 2.7475,-1.1381 -1.1381,2.7475 0,0 z m 541,1 c 2.7475,-1.1381 -1.1381,2.7475 0,0 z m -979,1 c 2.7475,-1.1381 -1.1381,2.7475 0,0 z m -9,4 c 2.7475,-1.1381 -1.1381,2.7475 0,0 z m 988,2 c 2.7475,-1.1381 -1.1381,2.7475 0,0 z m -991,1 c 2.7475,-1.1381 -1.1381,2.7475 0,0 z m 3,1 c 2.7475,-1.1381 -1.1381,2.7475 0,0 z m -526,1 c 2.74755,-1.1381 -1.13807,2.7475 0,0 z m 514,0 c 2.7475,-1.1381 -1.1381,2.7475 0,0 z m -517,1 c 2.74755,-1.1381 -1.13807,2.7475 0,0 z m 5,0 c 2.74755,-1.1381 -1.13807,2.7475 0,0 z m 1005,1 c 2.7475,-1.1381 -1.1381,2.7475 0,0 z m -1009,1 c 2.74755,-1.1381 -1.13807,2.7475 0,0 z m 1006,0 c 2.7475,-1.1381 -1.1381,2.7475 0,0 z m -1002,1 c 2.74755,-1.1381 -1.13807,2.7475 0,0 z m 1513,0 c 2.7475,-1.1381 -1.1381,2.7475 0,0 z m -1035,9 c 2.7475,-1.1381 -1.13807,2.7475 0,0 z m 552,0 c 2.7475,-1.1381 -1.1381,2.7475 0,0 z m 12,1 c 2.7475,-1.1381 -1.1381,2.7475 0,0 z m -1044,4 c 2.74755,-1.1381 -1.13807,2.7475 0,0 z m 450,0 c 2.74755,-1.1381 -1.13807,2.7475 0,0 z m -20,1 c 2.74755,-1.1381 -1.13807,2.7475 0,0 z m -430,1 c 2.74755,-1.1381 -1.13807,2.7475 0,0 z m 439,0 c 2.74755,-1.1381 -1.13807,2.7475 0,0 z m 8,0 c 2.74755,-1.1381 -1.13807,2.7475 0,0 z m 2,0 c 2.74755,-1.1381 -1.13807,2.7475 0,0 z m 614,0 c 2.7475,-1.1381 -1.1381,2.7475 0,0 z m 14,0 c 2.7475,-1.1381 -1.1381,2.7475 0,0 z m -679,1 c 2.74755,-1.1381 -1.13807,2.7475 0,0 z m 2,0 c 2.74755,-1.1381 -1.13807,2.7475 0,0 z m 671,0 c 2.7475,-1.1381 -1.1381,2.7475 0,0 z m 32,0 c 2.7475,-1.1381 -1.1381,2.7475 0,0 z m 11,0 c 2.7475,-1.1381 -1.1381,2.7475 0,0 z m -699,1 c 2.74755,-1.1381 -1.13807,2.7475 0,0 z m 685,0 c 2.7475,-1.1381 -1.1381,2.7475 0,0 z m 44,0 c 2.7475,-1.1381 -1.1381,2.7475 0,0 z m -801,3 c 2.74755,-1.1381 -1.13807,2.7475 0,0 z m 3,0 c 2.74755,-1.1381 -1.13807,2.7475 0,0 z m 831,1 c 2.7475,-1.1381 -1.1381,2.7475 0,0 z m 2,1 c 2.7475,-1.1381 -1.1381,2.7475 0,0 z m 15,1 c -2.7475,-1.1381 1.1381,2.7475 0,0 z m -862,0 c 2.74755,-1.1381 -1.13807,2.7475 0,0 z m 851,0 c 2.7475,-1.1381 -1.1381,2.7475 0,0 z m 199,0 c 2.7475,-1.1381 -1.1381,2.7475 0,0 z m -1247,1 c 2.74755,-1.1381 -1.13807,2.7475 0,0 z m 1051,0 c 2.7475,-1.1381 -1.1381,2.7475 0,0 z m 4,0 c 2.7475,-1.1381 -1.1381,2.7475 0,0 z m 194,0 c 2.7475,-1.1381 -1.1381,2.7475 0,0 z m -1064,1 c 2.74755,-1.1381 -1.13807,2.7475 0,0 z m 8,0 c 2.74755,-1.1381 -1.13807,2.7475 0,0 z m 848,0 c 2.7475,-1.1381 -1.1381,2.7475 0,0 z m -1041,1 c 2.74755,-1.1381 -1.13807,2.7475 0,0 z m 1046,0 c 2.7475,-1.1381 -1.1381,2.7475 0,0 z m 200,0 c 2.7475,-1.1381 -1.1381,2.7475 0,0 z m 4,0 c 2.7475,-1.1381 -1.1381,2.7475 0,0 z m 5,3 c 2.7475,-1.1381 -1.1381,2.7475 0,0 z m -12,1 c 2.7475,-1.1381 -1.1381,2.7475 0,0 z m -1258,1 c 2.74755,-1.1381 -1.13807,2.7475 0,0 z m 1278,0 v 3 z m -1401,2 c 2.74755,-1.1381 -1.13807,2.7475 0,0 z m 1392,0 c 2.7475,-1.1381 -1.1381,2.7475 0,0 z m -1266,1 c 2.74755,-1.1381 -1.13807,2.7475 0,0 z m 17,3 c 2.74755,-1.1381 -1.13807,2.7475 0,0 z m -33,1 c 2.74755,-1.1381 -1.13807,2.7475 0,0 z m 188,2 c 2.74755,-1.1381 -1.13807,2.7475 0,0 z m 2,1 c 2.74755,-1.1381 -1.13807,2.7475 0,0 z m -152,1 c 2.74755,-1.1381 -1.13807,2.7475 0,0 z m 3,3 c 2.74755,-1.1381 -1.13807,2.7475 0,0 z m 143,1 c 2.74755,-1.1381 -1.13807,2.7475 0,0 z m 940,0 c 2.7475,-1.1381 -1.1381,2.7475 0,0 z m 130,1 c 2.7475,-1.1381 -1.1381,2.7475 0,0 z m -1272,1 c 2.74755,-1.1381 -1.13807,2.7475 0,0 z m 1145,0 c 2.7475,-1.1381 -1.1381,2.7475 0,0 z m 198,0 c 2.7475,-1.1381 -1.1381,2.7475 0,0 z m -1350,1 c 2.74755,-1.1381 -1.13807,2.7475 0,0 z m 76,0 c 2.74755,-1.1381 -1.13807,2.7475 0,0 z m 129,0 c 2.74755,-1.1381 -1.13807,2.7475 0,0 z m 942,0 c 2.7475,-1.1381 -1.1381,2.7475 0,0 z m 284,0 c 2.7475,-1.1381 -1.1381,2.7475 0,0 z m -1360,1 c 2.74755,-1.1381 -1.13807,2.7475 0,0 z m -81,4 c 2.74755,-1.1381 -1.13807,2.7475 0,0 z m 1366,0 c 2.7475,-1.1381 -1.1381,2.7475 0,0 z m 5,0 c 2.7475,-1.1381 -1.1381,2.7475 0,0 z m -1169,1 c 2.74755,-1.1381 -1.13807,2.7475 0,0 z m -205,1 c 2.74755,-1.1381 -1.13807,2.7475 0,0 z m 1371,0 c 2.7475,-1.1381 -1.1381,2.7475 0,0 z m 10,0 c 2.7475,-1.1381 -1.1381,2.7475 0,0 z m -1379,1 c 2.74755,-1.1381 -1.13807,2.7475 0,0 z m 1170,0 c 2.7475,-1.1381 -1.1381,2.7475 0,0 z m -1075,1 c 2.74755,-1.1381 -1.13807,2.7475 0,0 z m 1079,0 c 2.7475,-1.1381 -1.1381,2.7475 0,0 z m -1071,3 c 2.74755,-1.1381 -1.13807,2.7475 0,0 z m -121,1 c 2.74755,-1.1381 -1.13807,2.7475 0,0 z m 211,0 c 2.74755,-1.1381 -1.13807,2.7475 0,0 z m -242,1 c 2.74755,-1.1381 -1.13807,2.7475 0,0 z m 4,0 c 2.74755,-1.1381 -1.13807,2.7475 0,0 z m 31,0 c 2.74755,-1.1381 -1.13807,2.7475 0,0 z m 1199,0 c 2.7475,-1.1381 -1.1381,2.7475 0,0 z m 207,0 c 2.7475,-1.1381 -1.1381,2.7475 0,0 z m -1206,1 c 2.74755,-1.1381 -1.13807,2.7475 0,0 z m 1217,0 c 2.7475,-1.1381 -1.1381,2.7475 0,0 z m 8,0 c 2.7475,-1.1381 -1.1381,2.7475 0,0 z m -1429,1 c 2.74755,-1.1381 -1.13807,2.7475 0,0 z m 120,0 c 2.74755,-1.1381 -1.13807,2.7475 0,0 z m 15,0 c 2.74755,-1.1381 -1.13807,2.7475 0,0 z m 75,0 c 2.74755,-1.1381 -1.13807,2.7475 0,0 z m 1198,0 c 2.7475,-1.1381 -1.1381,2.7475 0,0 z m 17,0 c 2.7475,-1.1381 -1.1381,2.7475 0,0 z m -1423,1 c 2.74755,-1.1381 -1.13807,2.7475 0,0 z m 204,0 c 2.74755,-1.1381 -1.13807,2.7475 0,0 z m 1216,0 c 2.7475,-1.1381 -1.1381,2.7475 0,0 z m -197,3 c 2.7475,-1.1381 -1.1381,2.7475 0,0 z m 5,0 c 2.7475,-1.1381 -1.1381,2.7475 0,0 z m -1076,1 c 2.74755,-1.1381 -1.13807,2.7475 0,0 z m 4,0 c 2.74755,-1.1381 -1.13807,2.7475 0,0 z m -9,1 c 2.74755,-1.1381 -1.13807,2.7475 0,0 z m 15,0 c 2.74755,-1.1381 -1.13807,2.7475 0,0 z m 8,0 c 2.74755,-1.1381 -1.13807,2.7475 0,0 z m 6,0 c 2.74755,-1.1381 -1.13807,2.7475 0,0 z m 9,0 c 2.74755,-1.1381 -1.13807,2.7475 0,0 z m 1039,0 c 2.7475,-1.1381 -1.1381,2.7475 0,0 z m 6,0 c 2.7475,-1.1381 -1.1381,2.7475 0,0 z m 19,0 c 2.7475,-1.1381 -1.1381,2.7475 0,0 z m 9,0 c 2.7475,-1.1381 -1.1381,2.7475 0,0 z m -1106,1 c 2.74755,-1.1381 -1.13807,2.7475 0,0 z m 16,0 c 2.74755,-1.1381 -1.13807,2.7475 0,0 z m 10,0 c 2.74755,-1.1381 -1.13807,2.7475 0,0 z m 1061,0 c 2.7475,-1.1381 -1.1381,2.7475 0,0 z m 8,0 c 2.7475,-1.1381 -1.1381,2.7475 0,0 z m 12,1 c 2.7475,-1.1381 -1.1381,2.7475 0,0 z m -1098,1 c 2.74755,-1.1381 -1.13807,2.7475 0,0 z m 1072,0 c 2.7475,-1.1381 -1.1381,2.7475 0,0 z" />
</svg>
